<?xml version="1.0" encoding="UTF-8"?>
<!DOCTYPE svg PUBLIC "-//W3C//DTD SVG 1.1//EN" "http://www.w3.org/Graphics/SVG/1.1/DTD/svg11.dtd">
<!-- Creator: CorelDRAW -->
<svg xmlns="http://www.w3.org/2000/svg" xml:space="preserve" width="97.3191mm" height="65.2501mm" version="1.1" style="shape-rendering:geometricPrecision; text-rendering:geometricPrecision; image-rendering:optimizeQuality; fill-rule:evenodd; clip-rule:evenodd"
viewBox="0 0 22465.29 15062.43"
 xmlns:xlink="http://www.w3.org/1999/xlink"
 xmlns:xodm="http://www.corel.com/coreldraw/odm/2003">
 <defs>
  <style type="text/css">
   <![CDATA[
    .fil2 {fill:#002776;fill-rule:nonzero}
    .fil0 {fill:#009B3A;fill-rule:nonzero}
    .fil1 {fill:#FEDF00;fill-rule:nonzero}
    .fil3 {fill:white;fill-rule:nonzero}
   ]]>
  </style>
 </defs>
 <g id="Camada_x0020_1">
  <metadata id="CorelCorpID_0Corel-Layer"/>
  <polygon class="fil0" points="22465.29,15062.43 -0,15062.43 -0,0 22465.29,0 "/>
  <polygon class="fil1" points="1450.82,7615.14 11209.57,1309.33 21014.45,7600.09 11230.26,13958.99 "/>
  <path class="fil2" d="M15374.85 7596.65c0,2311.23 -1850.91,4184.83 -4134.05,4184.83 -2283.21,0 -4134.07,-1873.6 -4134.07,-4184.83 0,-2311.21 1850.86,-4184.81 4134.07,-4184.81 2283.14,0 4134.05,1873.6 4134.05,4184.81z"/>
  <path class="fil3" d="M10858.09 5950.29c2827.35,602.22 4470.13,2276.31 4470.13,2276.31 -43.61,325.99 -152.75,663 -152.75,663 -1817.67,-1740.41 -4088.16,-2210.01 -4088.16,-2210.01 -2022.19,-493.12 -3847.92,-138.14 -3847.92,-138.14 57.27,-236.2 221.05,-642.27 221.05,-642.27 0,0 1378.17,-258.31 3397.64,51.11z"/>
 </g>
</svg>
