<?xml version="1.0" encoding="UTF-8"?>
<!DOCTYPE svg PUBLIC "-//W3C//DTD SVG 1.1//EN" "http://www.w3.org/Graphics/SVG/1.1/DTD/svg11.dtd">
<!-- Creator: CorelDRAW -->
<svg xmlns="http://www.w3.org/2000/svg" xml:space="preserve" width="96.1598mm" height="65.2648mm" version="1.1" style="shape-rendering:geometricPrecision; text-rendering:geometricPrecision; image-rendering:optimizeQuality; fill-rule:evenodd; clip-rule:evenodd"
viewBox="0 0 5964.36 4048.08"
 xmlns:xlink="http://www.w3.org/1999/xlink"
 xmlns:xodm="http://www.corel.com/coreldraw/odm/2003">
 <defs>
  <style type="text/css">
   <![CDATA[
    .fil0 {fill:#FEFEFE;fill-rule:nonzero}
    .fil1 {fill:#EE3C39;fill-rule:nonzero}
    .fil2 {fill:#42407B;fill-rule:nonzero}
   ]]>
  </style>
 </defs>
 <g id="Camada_x0020_1">
  <metadata id="CorelCorpID_0Corel-Layer"/>
  <polygon class="fil0" points="-0,3761.27 5964.36,3761.27 5964.36,3487.17 -0,3487.17 "/>
  <polygon class="fil1" points="-0,4048.09 5964.36,4048.09 5964.36,3761.27 -0,3761.27 "/>
  <polygon class="fil0" points="-0,3200.37 5964.36,3200.37 5964.36,2890.63 -0,2890.63 "/>
  <polygon class="fil0" points="-0,1823.7 -0,2053.15 5964.36,2053.15 5964.36,1823.7 2583.79,1823.7 "/>
  <polygon class="fil0" points="-0,2603.8 5964.36,2603.8 5964.36,2339.96 -0,2339.96 "/>
  <polygon class="fil0" points="2583.79,447.02 5964.36,447.02 5964.36,252 2583.79,252 "/>
  <polygon class="fil0" points="2583.79,1536.9 5964.36,1536.9 5964.36,1273.03 2583.79,1273.03 "/>
  <polygon class="fil0" points="2583.79,986.22 5964.36,986.22 5964.36,733.83 2583.79,733.83 "/>
  <polygon class="fil1" points="-0,3279.42 -0,3487.17 5964.36,3487.17 5964.36,3200.37 -0,3200.37 "/>
  <polygon class="fil1" points="-0,2890.63 5964.36,2890.63 5964.36,2603.8 -0,2603.8 "/>
  <polygon class="fil1" points="-0,2339.96 5964.36,2339.96 5964.36,2053.15 -0,2053.15 "/>
  <polygon class="fil1" points="2583.79,1823.7 5964.36,1823.7 5964.36,1536.9 2583.79,1536.9 "/>
  <polygon class="fil1" points="2583.79,1273.03 5964.36,1273.03 5964.36,986.22 2583.79,986.22 "/>
  <polygon class="fil1" points="2583.79,733.83 5964.36,733.83 5964.36,447.02 2583.79,447.02 "/>
  <polygon class="fil1" points="2583.79,0 2583.79,252 5964.36,252 5964.36,0 "/>
  <path class="fil2" d="M2397.41 1706.7l-53.46 -26.48 -53.44 26.48 10.2 -56.1 -43.23 -39.73 59.75 -8.19 26.72 -51.02 26.74 51.02 59.76 8.19 -43.24 39.73 10.21 56.1zm-425.07 0l-53.43 -26.48 -53.47 26.48 10.22 -56.1 -43.24 -39.73 59.75 -8.19 26.75 -51.02 26.72 51.02 59.77 8.19 -43.27 39.73 10.21 56.1zm-425.05 0l-53.45 -26.48 -53.44 26.48 10.19 -56.1 -43.23 -39.73 59.76 -8.19 26.72 -51.02 26.73 51.02 59.76 8.19 -43.25 39.73 10.21 56.1zm-425.04 0l-53.47 -26.48 -53.45 26.48 10.22 -56.1 -43.25 -39.73 59.76 -8.19 26.73 -51.02 26.72 51.02 59.77 8.19 -43.26 39.73 10.23 56.1zm-425.07 0l-53.46 -26.48 -53.46 26.48 10.22 -56.1 -43.25 -39.73 59.76 -8.19 26.74 -51.02 26.72 51.02 59.77 8.19 -43.24 39.73 10.21 56.1zm-425.07 0l-53.46 -26.48 -53.44 26.48 10.19 -56.1 -43.23 -39.73 59.76 -8.19 26.72 -51.02 26.72 51.02 59.77 8.19 -43.24 39.73 10.21 56.1zm-139.94 -463.18l59.76 -8.19 26.72 -51.03 26.72 51.03 59.77 8.19 -32.12 29.51 -11.12 10.22 10.21 56.09 -53.46 -26.49 -53.44 26.49 10.19 -56.09 -11.1 -10.22 -32.12 -29.51zm2265.23 95.82l-53.46 -26.49 -53.44 26.49 10.2 -56.09 -11.11 -10.22 -32.12 -29.51 59.75 -8.19 26.72 -51.03 26.74 51.03 59.76 8.19 -32.12 29.51 -11.13 10.22 10.21 56.09zm-1974.12 79.68l26.72 -51.05 26.72 51.05 59.77 8.18 -43.25 39.71 10.22 56.11 -53.46 -26.49 -53.43 26.49 10.21 -56.11 -43.25 -39.71 59.76 -8.18zm505.24 104l-53.45 -26.49 -53.46 26.49 10.21 -56.11 -43.24 -39.71 59.76 -8.18 26.74 -51.05 26.72 51.05 59.77 8.18 -43.26 39.71 10.22 56.11zm425.07 0l-53.46 -26.49 -53.46 26.49 10.2 -56.11 -43.23 -39.71 59.76 -8.18 26.74 -51.05 26.72 51.05 59.75 8.18 -43.24 39.71 10.23 56.11zm425.05 0l-53.47 -26.49 -53.45 26.49 10.21 -56.11 -43.25 -39.71 59.77 -8.18 26.72 -51.05 26.75 51.05 59.76 8.18 -43.25 39.71 10.22 56.11zm425.04 0l-53.44 -26.49 -53.45 26.49 10.21 -56.11 -43.25 -39.71 59.76 -8.18 26.73 -51.05 26.72 51.05 59.78 8.18 -43.27 39.71 10.21 56.11zm0 -367.38l-53.44 -26.49 -53.45 26.49 10.21 -56.09 -43.25 -39.73 59.76 -8.19 26.73 -51.03 26.72 51.03 59.78 8.19 -43.27 39.73 10.21 56.09zm-371.28 87.87l59.75 -8.19 26.75 -51.03 26.72 51.03 59.77 8.19 -32.14 29.51 -11.13 10.22 10.21 56.09 -53.43 -26.49 -53.47 26.49 10.22 -56.09 -11.13 -10.22 -32.12 -29.51zm-53.76 -87.87l-53.47 -26.49 -53.45 26.49 10.21 -56.09 -43.25 -39.73 59.77 -8.19 26.72 -51.03 26.75 51.03 59.76 8.19 -43.25 39.73 10.22 56.09zm-371.3 87.87l59.76 -8.19 26.72 -51.03 26.73 51.03 59.76 8.19 -32.13 29.51 -11.12 10.22 10.21 56.09 -53.45 -26.49 -53.44 26.49 10.19 -56.09 -11.1 -10.22 -32.13 -29.51zm-53.75 -87.87l-53.46 -26.49 -53.46 26.49 10.2 -56.09 -43.23 -39.73 59.76 -8.19 26.74 -51.03 26.72 51.03 59.75 8.19 -43.24 39.73 10.23 56.09zm-371.31 87.87l59.76 -8.19 26.73 -51.03 26.72 51.03 59.77 8.19 -32.14 29.51 -11.13 10.22 10.23 56.09 -53.47 -26.49 -53.45 26.49 10.22 -56.09 -11.13 -10.22 -32.12 -29.51zm-53.76 -87.87l-53.45 -26.49 -53.46 26.49 10.21 -56.09 -43.24 -39.73 59.76 -8.19 26.74 -51.03 26.72 51.03 59.77 8.19 -43.26 39.73 10.22 56.09zm-371.3 87.87l59.76 -8.19 26.74 -51.03 26.72 51.03 59.77 8.19 -32.14 29.51 -11.1 10.22 10.21 56.09 -53.46 -26.49 -53.46 26.49 10.22 -56.09 -11.13 -10.22 -32.12 -29.51zm-53.76 -87.87l-53.46 -26.49 -53.43 26.49 10.21 -56.09 -43.25 -39.73 59.76 -8.19 26.72 -51.03 26.72 51.03 59.77 8.19 -43.25 39.73 10.22 56.09zm-139.94 -463.19l59.76 -8.19 26.72 -51.03 26.72 51.03 59.77 8.19 -43.25 39.73 0.3 1.64 9.92 54.45 -53.46 -26.47 -53.43 26.47 9.91 -54.45 0.3 -1.64 -43.25 -39.73zm-91.42 -87.85l-53.46 -26.49 -53.44 26.49 10.19 -56.1 -43.23 -39.75 59.76 -8.19 26.72 -51.03 26.72 51.03 59.77 8.19 -43.24 39.75 10.21 56.1zm2125.29 0l-53.46 -26.49 -53.44 26.49 10.2 -56.1 -43.23 -39.75 59.75 -8.19 26.72 -51.03 26.74 51.03 59.76 8.19 -43.24 39.75 10.21 56.1zm-193.71 183.67l-53.44 -26.47 -53.45 26.47 9.91 -54.45 0.3 -1.64 -43.25 -39.73 59.76 -8.19 26.73 -51.03 26.72 51.03 59.78 8.19 -43.27 39.73 0.3 1.64 9.91 54.45zm193.71 183.68l-53.46 -26.47 -53.44 26.47 10.2 -56.09 -43.23 -39.73 59.75 -8.19 26.72 -51.03 26.74 51.03 59.76 8.19 -43.24 39.73 10.21 56.09zm-1780.42 -104l26.74 -51.03 26.72 51.03 59.77 8.19 -43.24 39.73 10.21 56.09 -53.46 -26.47 -53.46 26.47 10.22 -56.09 -43.25 -39.73 59.76 -8.19zm505.27 104l-53.47 -26.47 -53.45 26.47 10.22 -56.09 -43.25 -39.73 59.76 -8.19 26.73 -51.03 26.72 51.03 59.77 8.19 -43.26 39.73 10.23 56.09zm425.04 0l-53.45 -26.47 -53.44 26.47 10.19 -56.09 -43.23 -39.73 59.76 -8.19 26.72 -51.03 26.73 51.03 59.76 8.19 -43.25 39.73 10.21 56.09zm425.05 0l-53.43 -26.47 -53.47 26.47 10.22 -56.09 -43.24 -39.73 59.75 -8.19 26.75 -51.03 26.72 51.03 59.77 8.19 -43.27 39.73 10.21 56.09zm0 -367.35l-53.43 -26.49 -53.47 26.49 10.22 -56.1 -43.24 -39.75 59.75 -8.19 26.75 -51.03 26.72 51.03 59.77 8.19 -43.27 39.75 10.21 56.1zm-333.65 87.85l59.77 -8.19 26.72 -51.03 26.75 51.03 59.76 8.19 -43.25 39.73 0.3 1.64 9.92 54.45 -53.47 -26.47 -53.45 26.47 9.91 -54.45 0.3 -1.64 -43.25 -39.73zm-91.4 -87.85l-53.45 -26.49 -53.44 26.49 10.19 -56.1 -43.23 -39.75 59.76 -8.19 26.72 -51.03 26.73 51.03 59.76 8.19 -43.25 39.75 10.21 56.1zm-333.64 87.85l59.76 -8.19 26.74 -51.03 26.72 51.03 59.75 8.19 -43.24 39.73 0.3 1.64 9.94 54.45 -53.46 -26.47 -53.46 26.47 9.91 -54.45 0.29 -1.64 -43.23 -39.73zm-91.4 -87.85l-53.47 -26.49 -53.45 26.49 10.22 -56.1 -43.25 -39.75 59.76 -8.19 26.73 -51.03 26.72 51.03 59.77 8.19 -43.26 39.75 10.23 56.1zm-333.67 87.85l59.76 -8.19 26.74 -51.03 26.72 51.03 59.77 8.19 -43.26 39.73 0.32 1.64 9.91 54.45 -53.45 -26.47 -53.46 26.47 9.91 -54.45 0.3 -1.64 -43.24 -39.73zm-91.4 -87.85l-53.46 -26.49 -53.46 26.49 10.22 -56.1 -43.25 -39.75 59.76 -8.19 26.74 -51.03 26.72 51.03 59.77 8.19 -43.24 39.75 10.21 56.1zm-425.07 367.35l-53.46 -26.47 -53.44 26.47 10.19 -56.09 -43.23 -39.73 59.76 -8.19 26.72 -51.03 26.72 51.03 59.77 8.19 -43.24 39.73 10.21 56.09zm1931.58 -551.04l-53.44 -26.49 -53.45 26.49 10.21 -56.11 -43.25 -39.71 59.76 -8.19 26.73 -51.03 26.72 51.03 59.78 8.19 -43.27 39.71 10.21 56.11zm-425.04 0l-53.47 -26.49 -53.45 26.49 10.21 -56.11 -43.25 -39.71 59.77 -8.19 26.72 -51.03 26.75 51.03 59.76 8.19 -43.25 39.71 10.22 56.11zm-425.05 0l-53.46 -26.49 -53.46 26.49 10.2 -56.11 -43.23 -39.71 59.76 -8.19 26.74 -51.03 26.72 51.03 59.75 8.19 -43.24 39.71 10.23 56.11zm-425.07 0l-53.45 -26.49 -53.46 26.49 10.21 -56.11 -43.24 -39.71 59.76 -8.19 26.74 -51.03 26.72 51.03 59.77 8.19 -43.26 39.71 10.22 56.11zm-425.06 0l-53.46 -26.49 -53.43 26.49 10.21 -56.11 -43.25 -39.71 59.76 -8.19 26.72 -51.03 26.72 51.03 59.77 8.19 -43.25 39.71 10.22 56.11zm-311.54 -287.69l26.72 -51.05 26.72 51.05 59.77 8.18 -43.24 39.73 10.21 56.1 -53.46 -26.49 -53.44 26.49 10.19 -56.1 -43.23 -39.73 59.76 -8.18zm425.05 0l26.74 -51.05 26.72 51.05 59.77 8.18 -43.24 39.73 10.21 56.1 -53.46 -26.49 -53.46 26.49 10.22 -56.1 -43.25 -39.73 59.76 -8.18zm425.07 0l26.73 -51.05 26.72 51.05 59.77 8.18 -43.26 39.73 10.23 56.1 -53.47 -26.49 -53.45 26.49 10.22 -56.1 -43.25 -39.73 59.76 -8.18zm425.07 0l26.72 -51.05 26.73 51.05 59.76 8.18 -43.25 39.73 10.21 56.1 -53.45 -26.49 -53.44 26.49 10.19 -56.1 -43.23 -39.73 59.76 -8.18zm425.04 0l26.75 -51.05 26.72 51.05 59.77 8.18 -43.27 39.73 10.21 56.1 -53.43 -26.49 -53.47 26.49 10.22 -56.1 -43.24 -39.73 59.75 -8.18zm425.07 0l26.72 -51.05 26.74 51.05 59.76 8.18 -43.24 39.73 10.21 56.1 -53.46 -26.49 -53.44 26.49 10.2 -56.1 -43.23 -39.73 59.75 -8.18zm266.56 1403.67l0 -1536.9 -2583.79 0 0 1823.7 2583.79 0 0 -286.79z"/>
  <polygon class="fil0" points="165.22,237.23 218.66,210.74 272.12,237.23 261.91,181.14 305.16,141.41 245.39,133.23 218.66,82.18 191.94,133.23 132.19,141.41 175.41,181.14 "/>
  <polygon class="fil0" points="590.27,237.23 643.73,210.74 697.19,237.23 686.98,181.14 730.23,141.41 670.45,133.23 643.73,82.18 616.99,133.23 557.24,141.41 600.49,181.14 "/>
  <polygon class="fil0" points="1015.34,237.23 1068.79,210.74 1122.26,237.23 1112.02,181.14 1155.29,141.41 1095.51,133.23 1068.79,82.18 1042.06,133.23 982.3,141.41 1025.55,181.14 "/>
  <polygon class="fil0" points="1440.4,237.23 1493.85,210.74 1547.3,237.23 1537.09,181.14 1580.34,141.41 1520.58,133.23 1493.85,82.18 1467.13,133.23 1407.36,141.41 1450.6,181.14 "/>
  <polygon class="fil0" points="1865.45,237.23 1918.91,210.74 1972.35,237.23 1962.14,181.14 2005.41,141.41 1945.63,133.23 1918.91,82.18 1892.17,133.23 1832.42,141.41 1875.66,181.14 "/>
  <polygon class="fil0" points="2290.51,237.23 2343.95,210.74 2397.41,237.23 2387.2,181.14 2430.45,141.41 2370.69,133.23 2343.95,82.18 2317.23,133.23 2257.48,141.41 2300.71,181.14 "/>
  <polygon class="fil0" points="476.74,316.9 450.02,265.87 423.3,316.9 363.54,325.09 406.79,364.81 396.58,420.92 450.02,394.43 503.48,420.92 493.26,364.81 536.51,325.09 "/>
  <polygon class="fil0" points="901.81,316.9 875.09,265.87 848.35,316.9 788.59,325.09 831.84,364.81 821.63,420.92 875.09,394.43 928.54,420.92 918.32,364.81 961.58,325.09 "/>
  <polygon class="fil0" points="1326.87,316.9 1300.15,265.87 1273.41,316.9 1213.66,325.09 1256.89,364.81 1246.69,420.92 1300.15,394.43 1353.61,420.92 1343.38,364.81 1386.62,325.09 "/>
  <polygon class="fil0" points="1751.94,316.9 1725.19,265.87 1698.47,316.9 1638.7,325.09 1681.95,364.81 1671.74,420.92 1725.19,394.43 1778.66,420.92 1768.44,364.81 1811.7,325.09 "/>
  <polygon class="fil0" points="2176.98,316.9 2150.26,265.87 2123.53,316.9 2063.77,325.09 2107.02,364.81 2096.81,420.92 2150.26,394.43 2203.7,420.92 2193.49,364.81 2236.76,325.09 "/>
  <polygon class="fil0" points="396.58,788.28 450.02,761.81 503.48,788.28 493.56,733.83 493.26,732.19 536.51,692.46 476.74,684.27 450.02,633.24 423.3,684.27 363.54,692.46 406.79,732.19 406.5,733.83 "/>
  <polygon class="fil0" points="821.63,788.28 875.09,761.81 928.54,788.28 918.63,733.83 918.32,732.19 961.58,692.46 901.81,684.27 875.09,633.24 848.35,684.27 788.59,692.46 831.84,732.19 831.54,733.83 "/>
  <polygon class="fil0" points="1246.69,788.28 1300.15,761.81 1353.61,788.28 1343.68,733.83 1343.38,732.19 1386.62,692.46 1326.87,684.27 1300.15,633.24 1273.41,684.27 1213.66,692.46 1256.89,732.19 1256.6,733.83 "/>
  <polygon class="fil0" points="1671.74,788.28 1725.19,761.81 1778.66,788.28 1768.74,733.83 1768.44,732.19 1811.7,692.46 1751.94,684.27 1725.19,633.24 1698.47,684.27 1638.7,692.46 1681.95,732.19 1681.65,733.83 "/>
  <polygon class="fil0" points="2236.76,692.46 2176.98,684.27 2150.26,633.24 2123.53,684.27 2063.77,692.46 2107.02,732.19 2106.72,733.83 2096.81,788.28 2150.26,761.81 2203.7,788.28 2193.79,733.83 2193.49,732.19 "/>
  <polygon class="fil0" points="476.74,1051.65 450.02,1000.61 423.3,1051.65 363.54,1059.84 406.79,1099.56 396.58,1155.65 450.02,1129.16 503.48,1155.65 493.26,1099.56 536.51,1059.84 "/>
  <polygon class="fil0" points="901.81,1051.65 875.09,1000.61 848.35,1051.65 788.59,1059.84 831.84,1099.56 821.63,1155.65 875.09,1129.16 928.54,1155.65 918.32,1099.56 961.58,1059.84 "/>
  <polygon class="fil0" points="1326.87,1051.65 1300.15,1000.61 1273.41,1051.65 1213.66,1059.84 1256.89,1099.56 1246.69,1155.65 1300.15,1129.16 1353.61,1155.65 1343.38,1099.56 1386.62,1059.84 "/>
  <polygon class="fil0" points="1751.94,1051.65 1725.19,1000.61 1698.47,1051.65 1638.7,1059.84 1681.95,1099.56 1671.74,1155.65 1725.19,1129.16 1778.66,1155.65 1768.44,1099.56 1811.7,1059.84 "/>
  <polygon class="fil0" points="2176.98,1051.65 2150.26,1000.61 2123.53,1051.65 2063.77,1059.84 2107.02,1099.56 2096.81,1155.65 2150.26,1129.16 2203.7,1155.65 2193.49,1099.56 2236.76,1059.84 "/>
  <polygon class="fil0" points="396.58,1523.03 450.02,1496.54 503.48,1523.03 493.26,1466.91 536.51,1427.21 476.74,1419.02 450.02,1367.97 423.3,1419.02 363.54,1427.21 406.79,1466.91 "/>
  <polygon class="fil0" points="901.81,1419.02 875.09,1367.97 848.35,1419.02 788.59,1427.21 831.84,1466.91 821.63,1523.03 875.09,1496.54 928.54,1523.03 918.32,1466.91 961.58,1427.21 "/>
  <polygon class="fil0" points="1326.87,1419.02 1300.15,1367.97 1273.41,1419.02 1213.66,1427.21 1256.89,1466.91 1246.69,1523.03 1300.15,1496.54 1353.61,1523.03 1343.38,1466.91 1386.62,1427.21 "/>
  <polygon class="fil0" points="1751.94,1419.02 1725.19,1367.97 1698.47,1419.02 1638.7,1427.21 1681.95,1466.91 1671.74,1523.03 1725.19,1496.54 1778.66,1523.03 1768.44,1466.91 1811.7,1427.21 "/>
  <polygon class="fil0" points="2176.98,1419.02 2150.26,1367.97 2123.53,1419.02 2063.77,1427.21 2107.02,1466.91 2096.81,1523.03 2150.26,1496.54 2203.7,1523.03 2193.49,1466.91 2236.76,1427.21 "/>
  <polygon class="fil0" points="245.39,500.58 218.66,449.55 191.94,500.58 132.19,508.77 175.41,548.52 165.22,604.61 218.66,578.12 272.12,604.61 261.91,548.52 305.16,508.77 "/>
  <polygon class="fil0" points="670.45,500.58 643.73,449.55 616.99,500.58 557.24,508.77 600.49,548.52 590.27,604.61 643.73,578.12 697.19,604.61 686.98,548.52 730.23,508.77 "/>
  <polygon class="fil0" points="1095.51,500.58 1068.79,449.55 1042.06,500.58 982.3,508.77 1025.55,548.52 1015.34,604.61 1068.79,578.12 1122.26,604.61 1112.02,548.52 1155.29,508.77 "/>
  <polygon class="fil0" points="1520.58,500.58 1493.85,449.55 1467.13,500.58 1407.36,508.77 1450.6,548.52 1440.4,604.61 1493.85,578.12 1547.3,604.61 1537.09,548.52 1580.34,508.77 "/>
  <polygon class="fil0" points="1945.63,500.58 1918.91,449.55 1892.17,500.58 1832.42,508.77 1875.66,548.52 1865.45,604.61 1918.91,578.12 1972.35,604.61 1962.14,548.52 2005.41,508.77 "/>
  <polygon class="fil0" points="2370.69,500.58 2343.95,449.55 2317.23,500.58 2257.48,508.77 2300.71,548.52 2290.51,604.61 2343.95,578.12 2397.41,604.61 2387.2,548.52 2430.45,508.77 "/>
  <polygon class="fil0" points="245.39,867.96 218.66,816.92 191.94,867.96 132.19,876.15 175.41,915.87 165.22,971.96 218.66,945.49 272.12,971.96 261.91,915.87 305.16,876.15 "/>
  <polygon class="fil0" points="590.27,971.96 643.73,945.49 697.19,971.96 686.98,915.87 730.23,876.15 670.45,867.96 643.73,816.92 616.99,867.96 557.24,876.15 600.49,915.87 "/>
  <polygon class="fil0" points="1095.51,867.96 1068.79,816.92 1042.06,867.96 982.3,876.15 1025.55,915.87 1015.34,971.96 1068.79,945.49 1122.26,971.96 1112.02,915.87 1155.29,876.15 "/>
  <polygon class="fil0" points="1520.58,867.96 1493.85,816.92 1467.13,867.96 1407.36,876.15 1450.6,915.87 1440.4,971.96 1493.85,945.49 1547.3,971.96 1537.09,915.87 1580.34,876.15 "/>
  <polygon class="fil0" points="1945.63,867.96 1918.91,816.92 1892.17,867.96 1832.42,876.15 1875.66,915.87 1865.45,971.96 1918.91,945.49 1972.35,971.96 1962.14,915.87 2005.41,876.15 "/>
  <polygon class="fil0" points="2370.69,867.96 2343.95,816.92 2317.23,867.96 2257.48,876.15 2300.71,915.87 2290.51,971.96 2343.95,945.49 2397.41,971.96 2387.2,915.87 2430.45,876.15 "/>
  <polygon class="fil0" points="165.22,1339.34 218.66,1312.85 272.12,1339.34 261.91,1283.25 273.04,1273.03 305.16,1243.52 245.39,1235.34 218.66,1184.3 191.94,1235.34 132.19,1243.52 164.31,1273.03 175.41,1283.25 "/>
  <polygon class="fil0" points="590.27,1339.34 643.73,1312.85 697.19,1339.34 686.98,1283.25 698.08,1273.03 730.23,1243.52 670.45,1235.34 643.73,1184.3 616.99,1235.34 557.24,1243.52 589.36,1273.03 600.49,1283.25 "/>
  <polygon class="fil0" points="1015.34,1339.34 1068.79,1312.85 1122.26,1339.34 1112.02,1283.25 1123.15,1273.03 1155.29,1243.52 1095.51,1235.34 1068.79,1184.3 1042.06,1235.34 982.3,1243.52 1014.43,1273.03 1025.55,1283.25 "/>
  <polygon class="fil0" points="1440.4,1339.34 1493.85,1312.85 1547.3,1339.34 1537.09,1283.25 1548.21,1273.03 1580.34,1243.52 1520.58,1235.34 1493.85,1184.3 1467.13,1235.34 1407.36,1243.52 1439.49,1273.03 1450.6,1283.25 "/>
  <polygon class="fil0" points="1865.45,1339.34 1918.91,1312.85 1972.35,1339.34 1962.14,1283.25 1973.27,1273.03 2005.41,1243.52 1945.63,1235.34 1918.91,1184.3 1892.17,1235.34 1832.42,1243.52 1864.53,1273.03 1875.66,1283.25 "/>
  <polygon class="fil0" points="2430.45,1243.52 2370.69,1235.34 2343.95,1184.3 2317.23,1235.34 2257.48,1243.52 2289.6,1273.03 2300.71,1283.25 2290.51,1339.34 2343.95,1312.85 2397.41,1339.34 2387.2,1283.25 2398.33,1273.03 "/>
  <polygon class="fil0" points="245.39,1602.69 218.66,1551.68 191.94,1602.69 132.19,1610.88 175.41,1650.61 165.22,1706.7 218.66,1680.23 272.12,1706.7 261.91,1650.61 305.16,1610.88 "/>
  <polygon class="fil0" points="670.45,1602.69 643.73,1551.68 616.99,1602.69 557.24,1610.88 600.49,1650.61 590.27,1706.7 643.73,1680.23 697.19,1706.7 686.98,1650.61 730.23,1610.88 "/>
  <polygon class="fil0" points="1095.51,1602.69 1068.79,1551.68 1042.06,1602.69 982.3,1610.88 1025.55,1650.61 1015.34,1706.7 1068.79,1680.23 1122.26,1706.7 1112.02,1650.61 1155.29,1610.88 "/>
  <polygon class="fil0" points="1520.58,1602.69 1493.85,1551.68 1467.13,1602.69 1407.36,1610.88 1450.6,1650.61 1440.4,1706.7 1493.85,1680.23 1547.3,1706.7 1537.09,1650.61 1580.34,1610.88 "/>
  <polygon class="fil0" points="1945.63,1602.69 1918.91,1551.68 1892.17,1602.69 1832.42,1610.88 1875.66,1650.61 1865.45,1706.7 1918.91,1680.23 1972.35,1706.7 1962.14,1650.61 2005.41,1610.88 "/>
  <polygon class="fil0" points="2370.69,1602.69 2343.95,1551.68 2317.23,1602.69 2257.48,1610.88 2300.71,1650.61 2290.51,1706.7 2343.95,1680.23 2397.41,1706.7 2387.2,1650.61 2430.45,1610.88 "/>
 </g>
</svg>
