<?xml version="1.0" encoding="UTF-8"?>
<!DOCTYPE svg PUBLIC "-//W3C//DTD SVG 1.1//EN" "http://www.w3.org/Graphics/SVG/1.1/DTD/svg11.dtd">
<!-- Creator: CorelDRAW -->
<svg xmlns="http://www.w3.org/2000/svg" xml:space="preserve" width="26.1709mm" height="34.2868mm" version="1.1" style="shape-rendering:geometricPrecision; text-rendering:geometricPrecision; image-rendering:optimizeQuality; fill-rule:evenodd; clip-rule:evenodd"
viewBox="0 0 212.6 278.53"
 xmlns:xlink="http://www.w3.org/1999/xlink"
 xmlns:xodm="http://www.corel.com/coreldraw/odm/2003">
 <defs>
  <style type="text/css">
   <![CDATA[
    .fil4 {fill:#0A34BD;fill-rule:nonzero}
    .fil2 {fill:#1E81CE;fill-rule:nonzero}
    .fil3 {fill:#2459EC;fill-rule:nonzero}
    .fil1 {fill:#9BC9FF;fill-rule:nonzero}
    .fil0 {fill:white;fill-rule:nonzero}
   ]]>
  </style>
 </defs>
 <g id="Camada_x0020_1">
  <metadata id="CorelCorpID_0Corel-Layer"/>
  <polygon class="fil0" points="130.15,212.99 130.15,255.44 78.76,274.06 78.76,212.99 "/>
  <polygon class="fil1" points="200.15,96.81 130.15,212.99 78.76,212.99 4.29,96.81 60.14,96.81 101.1,96.81 "/>
  <path class="fil0" d="M128.66 53.62c0,19.36 -11.17,35.75 -27.56,43.19l-41.7 0c-16.38,-7.44 -27.55,-24.57 -27.55,-43.19 0,-26.81 21.6,-48.41 48.4,-48.41 26.81,0 48.41,21.59 48.41,48.41z"/>
  <path class="fil2" d="M98.87 33.51l-5.21 8.94c0,0 -0.74,-0.74 -1.49,-0.74 -0.74,-0.75 -1.49,-0.75 -2.23,-1.49 -0.74,-0.74 -2.23,-0.74 -3.73,-1.49 -1.49,-0.74 -2.23,-0.74 -3.72,-0.74l0 8.94 2.23 0.74c2.23,0.74 4.47,1.49 5.96,2.23 2.24,0.74 3.73,1.49 4.47,2.98 1.5,0.74 2.23,2.23 2.98,3.72 0.74,1.49 0.74,3.72 0.74,5.96 0,2.23 -0.74,4.47 -1.5,6.7 -0.74,1.49 -2.23,2.98 -3.72,4.47 -1.49,1.49 -2.98,2.24 -5.21,2.98 -2.24,0.74 -3.73,0.74 -5.96,0.74l0 8.2 -4.47 0 0 -8.2c-2.98,0 -5.96,-0.74 -9.69,-2.24 -2.97,-0.74 -5.95,-2.23 -8.19,-3.73l5.21 -9.67c0,0 0.74,0.74 1.49,1.49 0.75,0.74 1.49,0.74 2.98,1.49 1.49,0.75 2.98,0.75 4.47,1.49 1.49,0.75 2.97,0.75 4.47,1.49l0 -8.94 -2.98 -0.74c-2.24,-0.74 -4.47,-1.49 -5.96,-2.24 -1.49,-0.74 -2.98,-1.49 -3.73,-2.98 -0.74,-0.74 -2.23,-2.24 -2.23,-3.73 -0.75,-1.49 -0.75,-2.97 -0.75,-4.47 0,-2.23 0.75,-4.47 1.49,-5.96 0.75,-1.49 2.24,-3.72 2.99,-4.47 1.49,-1.49 2.97,-2.24 5.21,-2.98 2.23,-0.74 3.72,-1.49 5.96,-1.49l0 -6.71 4.47 0 0 6.71c2.97,0 5.95,0.74 8.19,2.23 2.97,-0.74 5.21,0 7.44,1.49zm-16.38 33.51c3.72,0 5.21,-1.49 5.21,-3.73 0,-1.49 -0.75,-2.24 -1.49,-2.98 -0.74,-0.74 -2.23,-1.49 -3.72,-1.49l0 8.2zm-2.98 -20.85l0 -8.19c-2.98,0 -4.47,1.49 -4.47,3.72 0,1.49 0.74,2.23 1.49,2.97 0,0.74 1.49,1.49 2.98,1.49z"/>
  <path class="fil2" d="M142.59 210.11c-0.71,0 -1.41,0 -2.11,-0.7 -2.1,-1.41 -2.8,-4.21 -1.4,-6.32l61.76 -103.17 -85.63 0c-2.1,0 -4.2,-2.1 -4.2,-4.21 0,-2.1 2.1,-4.21 4.2,-4.21l93.35 0c1.41,0 2.82,0.7 3.51,2.11 0.71,1.4 0.71,2.8 0,4.21l-65.97 109.48c-0.7,1.41 -2.1,2.81 -3.5,2.81z"/>
  <path class="fil2" d="M78.76 218.2c-1.49,0 -2.98,-0.74 -3.73,-2.24l-74.47 -116.17c-0.75,-1.49 -0.75,-2.98 0,-4.47 0.75,-1.49 2.24,-2.24 3.73,-2.24l55.11 0c2.24,0 4.47,2.24 4.47,4.47 0,2.24 -2.24,4.47 -4.47,4.47l-46.92 0 70.01 109.48c1.49,2.23 0.74,5.21 -1.49,6.7 0,-0.74 -0.74,0 -2.23,0z"/>
  <path class="fil2" d="M60.89 92.34l39.48 0c14.89,-7.44 23.82,-22.34 23.82,-38.72 0,-23.83 -19.36,-43.19 -43.19,-43.19 -23.82,0 -43.19,19.36 -43.19,43.19 -0.74,16.38 8.94,31.28 23.09,38.72zm40.21 8.94l-41.7 0c-0.74,0 -1.49,0 -2.22,-0.74 -18.63,-8.94 -30.54,-27.56 -30.54,-47.66 0,-29.05 23.82,-52.87 52.87,-52.87 29.05,0 52.88,23.82 52.88,52.87 0,20.11 -11.92,38.72 -30.53,47.66 0.74,0.74 0,0.74 -0.75,0.74z"/>
  <path class="fil2" d="M83.98 218.2l0 49.15 41.71 -14.89 0 -34.26 -41.71 0zm-5.21 60.32c-0.74,0 -2.24,0 -2.98,-0.74 -1.49,-0.75 -2.24,-2.24 -2.24,-3.73l0 -60.33c0,-2.23 2.24,-4.47 4.48,-4.47l51.38 0c2.24,0 4.47,2.24 4.47,4.47l0 41.71c0,2.24 -1.49,3.73 -2.98,4.47l-51.39 18.62c0.74,0 0,0 -0.74,0z"/>
  <path class="fil2" d="M162.92 125.11l-121.39 0c-2.23,0 -4.47,-2.24 -4.47,-4.47 0,-2.23 2.24,-4.47 4.47,-4.47l121.39 0c2.23,0 4.46,2.24 4.46,4.47 0,2.23 -2.23,4.47 -4.46,4.47z"/>
  <polygon class="fil3" points="130.15,212.99 130.15,255.44 78.76,274.06 78.76,212.99 "/>
  <polygon class="fil3" points="200.15,96.81 130.15,212.99 78.76,212.99 4.29,96.81 60.14,96.81 101.1,96.81 "/>
  <path class="fil3" d="M128.66 53.62c0,19.36 -11.17,35.75 -27.56,43.19l-41.7 0c-16.38,-7.44 -27.55,-24.57 -27.55,-43.19 0,-26.81 21.6,-48.41 48.4,-48.41 26.81,0 48.41,21.59 48.41,48.41z"/>
  <path class="fil4" d="M98.87 33.51l-5.21 8.94c0,0 -0.74,-0.74 -1.49,-0.74 -0.74,-0.75 -1.49,-0.75 -2.23,-1.49 -0.74,-0.74 -2.23,-0.74 -3.73,-1.49 -1.49,-0.74 -2.23,-0.74 -3.72,-0.74l0 8.94 2.23 0.74c2.23,0.74 4.47,1.49 5.96,2.23 2.24,0.74 3.73,1.49 4.47,2.98 1.5,0.74 2.23,2.23 2.98,3.72 0.74,1.49 0.74,3.72 0.74,5.96 0,2.23 -0.74,4.47 -1.5,6.7 -0.74,1.49 -2.23,2.98 -3.72,4.47 -1.49,1.49 -2.98,2.24 -5.21,2.98 -2.24,0.74 -3.73,0.74 -5.96,0.74l0 8.2 -4.47 0 0 -8.2c-2.98,0 -5.96,-0.74 -9.69,-2.24 -2.97,-0.74 -5.95,-2.23 -8.19,-3.73l5.21 -9.67c0,0 0.74,0.74 1.49,1.49 0.75,0.74 1.49,0.74 2.98,1.49 1.49,0.75 2.98,0.75 4.47,1.49 1.49,0.75 2.97,0.75 4.47,1.49l0 -8.94 -2.98 -0.74c-2.24,-0.74 -4.47,-1.49 -5.96,-2.24 -1.49,-0.74 -2.98,-1.49 -3.73,-2.98 -0.74,-0.74 -2.23,-2.24 -2.23,-3.73 -0.75,-1.49 -0.75,-2.97 -0.75,-4.47 0,-2.23 0.75,-4.47 1.49,-5.96 0.75,-1.49 2.24,-3.72 2.99,-4.47 1.49,-1.49 2.97,-2.24 5.21,-2.98 2.23,-0.74 3.72,-1.49 5.96,-1.49l0 -6.71 4.47 0 0 6.71c2.97,0 5.95,0.74 8.19,2.23 2.97,-0.74 5.21,0 7.44,1.49zm-16.38 33.51c3.72,0 5.21,-1.49 5.21,-3.73 0,-1.49 -0.75,-2.24 -1.49,-2.98 -0.74,-0.74 -2.23,-1.49 -3.72,-1.49l0 8.2zm-2.98 -20.85l0 -8.19c-2.98,0 -4.47,1.49 -4.47,3.72 0,1.49 0.74,2.23 1.49,2.97 0,0.74 1.49,1.49 2.98,1.49z"/>
  <path class="fil4" d="M142.59 210.11c-0.71,0 -1.41,0 -2.11,-0.7 -2.1,-1.41 -2.8,-4.21 -1.4,-6.32l61.76 -103.17 -85.63 0c-2.1,0 -4.2,-2.1 -4.2,-4.21 0,-2.1 2.1,-4.21 4.2,-4.21l93.35 0c1.41,0 2.82,0.7 3.51,2.11 0.71,1.4 0.71,2.8 0,4.21l-65.97 109.48c-0.7,1.41 -2.1,2.81 -3.5,2.81z"/>
  <path class="fil4" d="M78.76 218.2c-1.49,0 -2.98,-0.74 -3.73,-2.24l-74.47 -116.17c-0.75,-1.49 -0.75,-2.98 0,-4.47 0.75,-1.49 2.24,-2.24 3.73,-2.24l55.11 0c2.24,0 4.47,2.24 4.47,4.47 0,2.24 -2.24,4.47 -4.47,4.47l-46.92 0 70.01 109.48c1.49,2.23 0.74,5.21 -1.49,6.7 0,-0.74 -0.74,0 -2.23,0z"/>
  <path class="fil4" d="M60.89 92.34l39.48 0c14.89,-7.44 23.82,-22.34 23.82,-38.72 0,-23.83 -19.36,-43.19 -43.19,-43.19 -23.82,0 -43.19,19.36 -43.19,43.19 -0.74,16.38 8.94,31.28 23.09,38.72zm40.21 8.94l-41.7 0c-0.74,0 -1.49,0 -2.22,-0.74 -18.63,-8.94 -30.54,-27.56 -30.54,-47.66 0,-29.05 23.82,-52.87 52.87,-52.87 29.05,0 52.88,23.82 52.88,52.87 0,20.11 -11.92,38.72 -30.53,47.66 0.74,0.74 0,0.74 -0.75,0.74z"/>
  <path class="fil4" d="M83.98 218.2l0 49.15 41.71 -14.89 0 -34.26 -41.71 0zm-5.21 60.32c-0.74,0 -2.24,0 -2.98,-0.74 -1.49,-0.75 -2.24,-2.24 -2.24,-3.73l0 -60.33c0,-2.23 2.24,-4.47 4.48,-4.47l51.38 0c2.24,0 4.47,2.24 4.47,4.47l0 41.71c0,2.24 -1.49,3.73 -2.98,4.47l-51.39 18.62c0.74,0 0,0 -0.74,0z"/>
  <path class="fil4" d="M162.92 125.11l-121.39 0c-2.23,0 -4.47,-2.24 -4.47,-4.47 0,-2.23 2.24,-4.47 4.47,-4.47l121.39 0c2.23,0 4.46,2.24 4.46,4.47 0,2.23 -2.23,4.47 -4.46,4.47z"/>
 </g>
</svg>
