<?xml version="1.0" encoding="UTF-8"?>
<!DOCTYPE svg PUBLIC "-//W3C//DTD SVG 1.1//EN" "http://www.w3.org/Graphics/SVG/1.1/DTD/svg11.dtd">
<!-- Creator: CorelDRAW -->
<svg xmlns="http://www.w3.org/2000/svg" xml:space="preserve" width="9.0861mm" height="11.9037mm" version="1.1" style="shape-rendering:geometricPrecision; text-rendering:geometricPrecision; image-rendering:optimizeQuality; fill-rule:evenodd; clip-rule:evenodd"
viewBox="0 0 14.64 19.18"
 xmlns:xlink="http://www.w3.org/1999/xlink"
 xmlns:xodm="http://www.corel.com/coreldraw/odm/2003">
 <defs>
  <style type="text/css">
   <![CDATA[
    .fil0 {fill:white;fill-rule:nonzero}
   ]]>
  </style>
 </defs>
 <g id="Camada_x0020_1">
  <metadata id="CorelCorpID_0Corel-Layer"/>
  <g id="_1953207344288">
   <path class="fil0" d="M6.81 2.31l-0.36 0.62c0,0 -0.05,-0.05 -0.1,-0.05 -0.05,-0.05 -0.1,-0.05 -0.15,-0.1 -0.05,-0.05 -0.15,-0.05 -0.26,-0.1 -0.1,-0.05 -0.15,-0.05 -0.26,-0.05l0 0.62 0.15 0.05c0.15,0.05 0.31,0.1 0.41,0.15 0.15,0.05 0.26,0.1 0.31,0.21 0.1,0.05 0.15,0.15 0.21,0.26 0.05,0.1 0.05,0.26 0.05,0.41 0,0.15 -0.05,0.31 -0.1,0.46 -0.05,0.1 -0.15,0.21 -0.26,0.31 -0.1,0.1 -0.21,0.15 -0.36,0.21 -0.15,0.05 -0.26,0.05 -0.41,0.05l0 0.56 -0.31 0 0 -0.56c-0.21,0 -0.41,-0.05 -0.67,-0.15 -0.2,-0.05 -0.41,-0.15 -0.56,-0.26l0.36 -0.67c0,0 0.05,0.05 0.1,0.1 0.05,0.05 0.1,0.05 0.21,0.1 0.1,0.05 0.21,0.05 0.31,0.1 0.1,0.05 0.2,0.05 0.31,0.1l0 -0.62 -0.21 -0.05c-0.15,-0.05 -0.31,-0.1 -0.41,-0.15 -0.1,-0.05 -0.21,-0.1 -0.26,-0.2 -0.05,-0.05 -0.15,-0.15 -0.15,-0.26 -0.05,-0.1 -0.05,-0.2 -0.05,-0.31 0,-0.15 0.05,-0.31 0.1,-0.41 0.05,-0.1 0.15,-0.26 0.21,-0.31 0.1,-0.1 0.2,-0.15 0.36,-0.21 0.15,-0.05 0.26,-0.1 0.41,-0.1l0 -0.46 0.31 0 0 0.46c0.2,0 0.41,0.05 0.56,0.15 0.2,-0.05 0.36,0 0.51,0.1zm-1.13 2.31c0.26,0 0.36,-0.1 0.36,-0.26 0,-0.1 -0.05,-0.15 -0.1,-0.21 -0.05,-0.05 -0.15,-0.1 -0.26,-0.1l0 0.56zm-0.21 -1.44l0 -0.56c-0.21,0 -0.31,0.1 -0.31,0.26 0,0.1 0.05,0.15 0.1,0.2 0,0.05 0.1,0.1 0.21,0.1z"/>
   <path class="fil0" d="M9.82 14.47c-0.05,0 -0.1,0 -0.15,-0.05 -0.14,-0.1 -0.19,-0.29 -0.1,-0.44l4.25 -7.1 -5.9 0c-0.14,0 -0.29,-0.14 -0.29,-0.29 0,-0.14 0.14,-0.29 0.29,-0.29l6.43 0c0.1,0 0.19,0.05 0.24,0.15 0.05,0.1 0.05,0.19 0,0.29l-4.54 7.54c-0.05,0.1 -0.14,0.19 -0.24,0.19z"/>
   <path class="fil0" d="M5.42 15.02c-0.1,0 -0.21,-0.05 -0.26,-0.15l-5.13 -8c-0.05,-0.1 -0.05,-0.21 0,-0.31 0.05,-0.1 0.15,-0.15 0.26,-0.15l3.79 0c0.15,0 0.31,0.15 0.31,0.31 0,0.15 -0.15,0.31 -0.31,0.31l-3.23 0 4.82 7.54c0.1,0.15 0.05,0.36 -0.1,0.46 0,-0.05 -0.05,0 -0.15,0z"/>
   <path class="fil0" d="M4.19 6.36l2.72 0c1.02,-0.51 1.64,-1.54 1.64,-2.67 0,-1.64 -1.33,-2.97 -2.97,-2.97 -1.64,0 -2.97,1.33 -2.97,2.97 -0.05,1.13 0.62,2.15 1.59,2.67zm2.77 0.62l-2.87 0c-0.05,0 -0.1,0 -0.15,-0.05 -1.28,-0.62 -2.1,-1.9 -2.1,-3.28 0,-2 1.64,-3.64 3.64,-3.64 2,0 3.64,1.64 3.64,3.64 0,1.38 -0.82,2.67 -2.1,3.28 0.05,0.05 0,0.05 -0.05,0.05z"/>
   <path class="fil0" d="M5.78 15.02l0 3.38 2.87 -1.02 0 -2.36 -2.87 0zm-0.36 4.15c-0.05,0 -0.15,0 -0.21,-0.05 -0.1,-0.05 -0.15,-0.15 -0.15,-0.26l0 -4.15c0,-0.15 0.15,-0.31 0.31,-0.31l3.54 0c0.15,0 0.31,0.15 0.31,0.31l0 2.87c0,0.15 -0.1,0.26 -0.2,0.31l-3.54 1.28c0.05,0 0,0 -0.05,0z"/>
   <path class="fil0" d="M11.22 8.61l-8.36 0c-0.15,0 -0.31,-0.15 -0.31,-0.31 0,-0.15 0.15,-0.31 0.31,-0.31l8.36 0c0.15,0 0.31,0.15 0.31,0.31 0,0.15 -0.15,0.31 -0.31,0.31z"/>
   <path class="fil0" d="M6.81 2.31l-0.36 0.62c0,0 -0.05,-0.05 -0.1,-0.05 -0.05,-0.05 -0.1,-0.05 -0.15,-0.1 -0.05,-0.05 -0.15,-0.05 -0.26,-0.1 -0.1,-0.05 -0.15,-0.05 -0.26,-0.05l0 0.62 0.15 0.05c0.15,0.05 0.31,0.1 0.41,0.15 0.15,0.05 0.26,0.1 0.31,0.21 0.1,0.05 0.15,0.15 0.21,0.26 0.05,0.1 0.05,0.26 0.05,0.41 0,0.15 -0.05,0.31 -0.1,0.46 -0.05,0.1 -0.15,0.21 -0.26,0.31 -0.1,0.1 -0.21,0.15 -0.36,0.21 -0.15,0.05 -0.26,0.05 -0.41,0.05l0 0.56 -0.31 0 0 -0.56c-0.21,0 -0.41,-0.05 -0.67,-0.15 -0.2,-0.05 -0.41,-0.15 -0.56,-0.26l0.36 -0.67c0,0 0.05,0.05 0.1,0.1 0.05,0.05 0.1,0.05 0.21,0.1 0.1,0.05 0.21,0.05 0.31,0.1 0.1,0.05 0.2,0.05 0.31,0.1l0 -0.62 -0.21 -0.05c-0.15,-0.05 -0.31,-0.1 -0.41,-0.15 -0.1,-0.05 -0.21,-0.1 -0.26,-0.2 -0.05,-0.05 -0.15,-0.15 -0.15,-0.26 -0.05,-0.1 -0.05,-0.2 -0.05,-0.31 0,-0.15 0.05,-0.31 0.1,-0.41 0.05,-0.1 0.15,-0.26 0.21,-0.31 0.1,-0.1 0.2,-0.15 0.36,-0.21 0.15,-0.05 0.26,-0.1 0.41,-0.1l0 -0.46 0.31 0 0 0.46c0.2,0 0.41,0.05 0.56,0.15 0.2,-0.05 0.36,0 0.51,0.1zm-1.13 2.31c0.26,0 0.36,-0.1 0.36,-0.26 0,-0.1 -0.05,-0.15 -0.1,-0.21 -0.05,-0.05 -0.15,-0.1 -0.26,-0.1l0 0.56zm-0.21 -1.44l0 -0.56c-0.21,0 -0.31,0.1 -0.31,0.26 0,0.1 0.05,0.15 0.1,0.2 0,0.05 0.1,0.1 0.21,0.1z"/>
   <path class="fil0" d="M9.82 14.47c-0.05,0 -0.1,0 -0.15,-0.05 -0.14,-0.1 -0.19,-0.29 -0.1,-0.44l4.25 -7.1 -5.9 0c-0.14,0 -0.29,-0.14 -0.29,-0.29 0,-0.14 0.14,-0.29 0.29,-0.29l6.43 0c0.1,0 0.19,0.05 0.24,0.15 0.05,0.1 0.05,0.19 0,0.29l-4.54 7.54c-0.05,0.1 -0.14,0.19 -0.24,0.19z"/>
   <path class="fil0" d="M5.42 15.02c-0.1,0 -0.21,-0.05 -0.26,-0.15l-5.13 -8c-0.05,-0.1 -0.05,-0.21 0,-0.31 0.05,-0.1 0.15,-0.15 0.26,-0.15l3.79 0c0.15,0 0.31,0.15 0.31,0.31 0,0.15 -0.15,0.31 -0.31,0.31l-3.23 0 4.82 7.54c0.1,0.15 0.05,0.36 -0.1,0.46 0,-0.05 -0.05,0 -0.15,0z"/>
   <path class="fil0" d="M4.19 6.36l2.72 0c1.02,-0.51 1.64,-1.54 1.64,-2.67 0,-1.64 -1.33,-2.97 -2.97,-2.97 -1.64,0 -2.97,1.33 -2.97,2.97 -0.05,1.13 0.62,2.15 1.59,2.67zm2.77 0.62l-2.87 0c-0.05,0 -0.1,0 -0.15,-0.05 -1.28,-0.62 -2.1,-1.9 -2.1,-3.28 0,-2 1.64,-3.64 3.64,-3.64 2,0 3.64,1.64 3.64,3.64 0,1.38 -0.82,2.67 -2.1,3.28 0.05,0.05 0,0.05 -0.05,0.05z"/>
   <path class="fil0" d="M5.78 15.02l0 3.38 2.87 -1.02 0 -2.36 -2.87 0zm-0.36 4.15c-0.05,0 -0.15,0 -0.21,-0.05 -0.1,-0.05 -0.15,-0.15 -0.15,-0.26l0 -4.15c0,-0.15 0.15,-0.31 0.31,-0.31l3.54 0c0.15,0 0.31,0.15 0.31,0.31l0 2.87c0,0.15 -0.1,0.26 -0.2,0.31l-3.54 1.28c0.05,0 0,0 -0.05,0z"/>
   <path class="fil0" d="M11.22 8.61l-8.36 0c-0.15,0 -0.31,-0.15 -0.31,-0.31 0,-0.15 0.15,-0.31 0.31,-0.31l8.36 0c0.15,0 0.31,0.15 0.31,0.31 0,0.15 -0.15,0.31 -0.31,0.31z"/>
  </g>
 </g>
</svg>
