<?xml version="1.0" encoding="UTF-8"?>
<!DOCTYPE svg PUBLIC "-//W3C//DTD SVG 1.1//EN" "http://www.w3.org/Graphics/SVG/1.1/DTD/svg11.dtd">
<!-- Creator: CorelDRAW -->
<svg xmlns="http://www.w3.org/2000/svg" xml:space="preserve" width="33.5185mm" height="33.6194mm" version="1.1" style="shape-rendering:geometricPrecision; text-rendering:geometricPrecision; image-rendering:optimizeQuality; fill-rule:evenodd; clip-rule:evenodd"
viewBox="0 0 278.96 279.8"
 xmlns:xlink="http://www.w3.org/1999/xlink"
 xmlns:xodm="http://www.corel.com/coreldraw/odm/2003">
 <defs>
  <style type="text/css">
   <![CDATA[
    .fil4 {fill:#0A34BD;fill-rule:nonzero}
    .fil2 {fill:#1E81CE;fill-rule:nonzero}
    .fil3 {fill:#2459EC;fill-rule:nonzero}
    .fil1 {fill:#9BC9FF;fill-rule:nonzero}
    .fil0 {fill:white;fill-rule:nonzero}
   ]]>
  </style>
 </defs>
 <g id="Camada_x0020_1">
  <metadata id="CorelCorpID_0Corel-Layer"/>
  <polygon class="fil0" points="169.5,187.49 169.5,227.27 121.34,244.72 121.34,187.49 "/>
  <polygon class="fil1" points="235.1,78.61 169.5,187.49 121.34,187.49 51.55,78.61 103.89,78.61 142.28,78.61 "/>
  <path class="fil2" d="M121.34 192.38c-1.4,0 -2.79,-0.7 -3.49,-2.1l-69.8 -108.88c-0.7,-1.39 -0.7,-2.79 0,-4.19 0.7,-1.39 2.1,-2.1 3.49,-2.1l51.65 0c2.1,0 4.19,2.1 4.19,4.19 0,2.1 -2.1,4.19 -4.19,4.19l-43.97 0 65.62 102.6c1.39,2.09 0.7,4.89 -1.4,6.28 0,-0.7 -0.7,0 -2.09,0z"/>
  <path class="fil2" d="M126.23 192.38l0 46.06 39.09 -13.95 0 -32.11 -39.09 0zm-4.89 56.53c-0.7,0 -2.1,0 -2.79,-0.7 -1.39,-0.7 -2.1,-2.1 -2.1,-3.49l0 -56.54c0,-2.09 2.1,-4.19 4.2,-4.19l48.15 0c2.1,0 4.19,2.1 4.19,4.19l0 39.09c0,2.1 -1.39,3.49 -2.79,4.19l-48.16 17.45c0.7,0 0,0 -0.7,0z"/>
  <path class="fil2" d="M200.21 105.13l-113.77 0c-2.09,0 -4.19,-2.1 -4.19,-4.19 0,-2.09 2.1,-4.19 4.19,-4.19l113.77 0c2.09,0 4.18,2.1 4.18,4.19 0,2.09 -2.09,4.19 -4.18,4.19z"/>
  <polygon class="fil3" points="169.5,187.49 169.5,227.27 121.34,244.72 121.34,187.49 "/>
  <polygon class="fil3" points="235.1,78.61 169.5,187.49 121.34,187.49 51.55,78.61 103.89,78.61 142.28,78.61 "/>
  <path class="fil4" d="M169.5 192.38c-0.7,0 -1.4,0 -2.1,-0.7 -2.09,-1.4 -2.79,-4.19 -1.4,-6.29l61.43 -102.6 -168.22 0.7 65.62 102.6c1.4,2.09 0.7,4.89 -1.4,6.28 0,-0.7 -0.7,0 -2.09,0 -1.4,0 -2.79,-0.7 -3.49,-2.1l-69.8 -108.88c-0.7,-1.39 -0.7,-2.79 0,-4.19 0.71,-1.39 2.1,-2.1 3.49,-2.1l183.56 -0.7c1.4,0 2.8,0.7 3.49,2.1 0.7,1.4 0.7,2.79 0,4.19l-65.61 108.88c-0.7,1.4 -2.09,2.8 -3.48,2.8z"/>
  <path class="fil4" d="M126.23 192.38l0 46.06 39.09 -13.95 0 -32.11 -39.09 0zm-4.89 56.53c-0.7,0 -2.1,0 -2.79,-0.7 -1.39,-0.7 -2.1,-2.1 -2.1,-3.49l0 -56.54c0,-2.09 2.1,-4.19 4.2,-4.19l48.15 0c2.1,0 4.19,2.1 4.19,4.19l0 39.09c0,2.1 -1.39,3.49 -2.79,4.19l-48.16 17.45c0.7,0 0,0 -0.7,0z"/>
  <path class="fil4" d="M200.21 105.13l-113.77 0c-2.09,0 -4.19,-2.1 -4.19,-4.19 0,-2.09 2.1,-4.19 4.19,-4.19l113.77 0c2.09,0 4.18,2.1 4.18,4.19 0,2.09 -2.09,4.19 -4.18,4.19z"/>
  <g id="_1904954451168">
   <path class="fil4" d="M140.09 279.8c-37.44,0 -72.29,-14.56 -98.81,-41.09 -21.33,-21.32 -35.37,-48.88 -39.53,-79.05 0,-1.56 1.04,-3.64 2.6,-3.64 1.56,0 3.64,1.04 3.64,2.6 4.16,28.61 17.16,54.61 37.44,75.41 52.01,52.01 136.26,52.01 188.27,0 1.04,-1.04 3.12,-1.04 4.68,0 1.04,1.04 1.04,3.12 0,4.68 -26.01,26.53 -60.85,41.09 -98.3,41.09z"/>
   <path class="fil4" d="M275.32 123.77c-1.56,0 -3.12,-1.04 -3.12,-2.6 -4.17,-28.61 -17.16,-54.61 -37.44,-75.41 -52.01,-52.01 -136.26,-52.01 -188.27,0 -1.04,1.04 -3.12,1.04 -4.68,0 -1.04,-1.04 -1.04,-3.12 0,-4.68 26.53,-26.52 61.37,-41.08 98.82,-41.08 37.44,0 72.29,14.56 98.81,41.08 21.32,21.33 35.37,48.89 39.53,79.05 -0.52,2.08 -1.56,3.64 -3.64,3.64l0 0z"/>
   <path class="fil4" d="M236.31 267.31c-1.56,0 -3.12,-1.56 -3.12,-3.12l0 -24.44 -24.44 0c-1.56,0 -3.12,-1.56 -3.12,-3.12 0,-1.56 1.56,-3.12 3.12,-3.12l27.56 0c1.56,0 3.12,1.56 3.12,3.12l0 27.56c0.52,2.08 -1.04,3.12 -3.12,3.12z"/>
   <path class="fil4" d="M70.92 46.8l-27.56 0c-1.56,0 -3.12,-1.56 -3.12,-3.12l0 -27.57c0,-1.56 1.56,-3.12 3.12,-3.12 1.56,0 3.12,1.56 3.12,3.12l0 24.45 24.44 0c1.56,0 3.13,1.56 3.13,3.12 0,1.56 -1.04,3.12 -3.13,3.12z"/>
  </g>
  <path class="fil4" d="M37.39 87.96l-5.03 8.63c0,0 -0.72,-0.72 -1.44,-0.72 -0.71,-0.73 -1.44,-0.73 -2.15,-1.44 -0.72,-0.72 -2.15,-0.72 -3.6,-1.44 -1.44,-0.72 -2.15,-0.72 -3.59,-0.72l0 8.63 2.15 0.72c2.15,0.72 4.31,1.43 5.75,2.15 2.16,0.72 3.6,1.44 4.31,2.88 1.44,0.72 2.15,2.15 2.88,3.6 0.72,1.44 0.72,3.59 0.72,5.75 0,2.15 -0.72,4.32 -1.44,6.47 -0.71,1.43 -2.15,2.88 -3.59,4.31 -1.44,1.44 -2.88,2.16 -5.03,2.88 -2.16,0.72 -3.6,0.72 -5.75,0.72l0 7.91 -4.31 0 0 -7.91c-2.88,0 -5.76,-0.72 -9.36,-2.16 -2.87,-0.72 -5.74,-2.15 -7.9,-3.6l5.03 -9.34c0,0 0.72,0.72 1.44,1.44 0.73,0.72 1.43,0.72 2.88,1.43 1.44,0.72 2.88,0.72 4.32,1.44 1.43,0.72 2.87,0.72 4.31,1.44l0 -8.63 -2.88 -0.72c-2.16,-0.72 -4.31,-1.44 -5.75,-2.16 -1.44,-0.72 -2.88,-1.44 -3.6,-2.87 -0.72,-0.72 -2.15,-2.16 -2.15,-3.6 -0.72,-1.43 -0.72,-2.87 -0.72,-4.31 0,-2.15 0.72,-4.31 1.43,-5.75 0.72,-1.44 2.16,-3.6 2.89,-4.31 1.43,-1.44 2.87,-2.16 5.03,-2.88 2.15,-0.72 3.59,-1.44 5.75,-1.44l0 -6.48 4.32 0 0 6.48c2.87,0 5.75,0.72 7.91,2.15 2.87,-0.72 5.03,0 7.19,1.44zm-15.82 32.36c3.59,0 5.03,-1.44 5.03,-3.6 0,-1.44 -0.73,-2.16 -1.44,-2.88 -0.72,-0.72 -2.15,-1.44 -3.59,-1.44l0 7.91zm-2.88 -20.13l0 -7.91c-2.88,0 -4.31,1.43 -4.31,3.6 0,1.43 0.72,2.15 1.44,2.87 0,0.72 1.44,1.44 2.88,1.44z"/>
  <path class="fil4" d="M259.59 158.59l-5.03 8.63c0,0 -0.72,-0.72 -1.44,-0.72 -0.71,-0.72 -1.44,-0.72 -2.15,-1.44 -0.72,-0.72 -2.15,-0.72 -3.6,-1.44 -1.44,-0.72 -2.15,-0.72 -3.59,-0.72l0 8.63 2.15 0.72c2.15,0.72 4.31,1.43 5.75,2.15 2.16,0.72 3.6,1.44 4.31,2.88 1.44,0.72 2.15,2.15 2.88,3.6 0.72,1.44 0.72,3.59 0.72,5.75 0,2.15 -0.72,4.32 -1.44,6.47 -0.71,1.43 -2.15,2.88 -3.59,4.31 -1.44,1.44 -2.88,2.16 -5.03,2.88 -2.16,0.72 -3.6,0.72 -5.75,0.72l0 7.91 -4.31 0 0 -7.91c-2.88,0 -5.76,-0.72 -9.36,-2.16 -2.87,-0.72 -5.74,-2.15 -7.9,-3.6l5.03 -9.34c0,0 0.72,0.72 1.44,1.44 0.72,0.72 1.43,0.72 2.88,1.43 1.44,0.72 2.88,0.72 4.32,1.44 1.43,0.73 2.87,0.73 4.31,1.44l0 -8.63 -2.88 -0.72c-2.16,-0.72 -4.31,-1.44 -5.75,-2.16 -1.44,-0.72 -2.88,-1.44 -3.6,-2.87 -0.72,-0.72 -2.15,-2.16 -2.15,-3.6 -0.72,-1.43 -0.72,-2.87 -0.72,-4.31 0,-2.15 0.72,-4.31 1.43,-5.75 0.73,-1.44 2.16,-3.6 2.89,-4.31 1.43,-1.44 2.87,-2.16 5.03,-2.88 2.15,-0.72 3.59,-1.44 5.75,-1.44l0 -6.48 4.32 0 0 6.48c2.87,0 5.75,0.72 7.91,2.15 2.87,-0.72 5.03,0 7.19,1.44zm-15.82 32.36c3.59,0 5.03,-1.44 5.03,-3.6 0,-1.44 -0.72,-2.16 -1.44,-2.88 -0.72,-0.72 -2.15,-1.44 -3.59,-1.44l0 7.91zm-2.88 -20.13l0 -7.91c-2.88,0 -4.31,1.43 -4.31,3.6 0,1.43 0.72,2.15 1.44,2.87 0,0.72 1.44,1.44 2.88,1.44z"/>
 </g>
</svg>
