<?xml version="1.0" encoding="UTF-8"?>
<!DOCTYPE svg PUBLIC "-//W3C//DTD SVG 1.1//EN" "http://www.w3.org/Graphics/SVG/1.1/DTD/svg11.dtd">
<!-- Creator: CorelDRAW -->
<svg xmlns="http://www.w3.org/2000/svg" xml:space="preserve" width="11.0575mm" height="11.0909mm" version="1.1" style="shape-rendering:geometricPrecision; text-rendering:geometricPrecision; image-rendering:optimizeQuality; fill-rule:evenodd; clip-rule:evenodd"
viewBox="0 0 20.84 20.91"
 xmlns:xlink="http://www.w3.org/1999/xlink"
 xmlns:xodm="http://www.corel.com/coreldraw/odm/2003">
 <defs>
  <style type="text/css">
   <![CDATA[
    .fil0 {fill:#2155DC;fill-rule:nonzero}
   ]]>
  </style>
 </defs>
 <g id="Camada_x0020_1">
  <metadata id="CorelCorpID_0Corel-Layer"/>
  <g id="_1953211465952">
   <path class="fil0" d="M9.07 14.37c-0.1,0 -0.21,-0.05 -0.26,-0.16l-5.22 -8.13c-0.05,-0.1 -0.05,-0.21 0,-0.31 0.05,-0.1 0.16,-0.16 0.26,-0.16l3.86 0c0.16,0 0.31,0.16 0.31,0.31 0,0.16 -0.16,0.31 -0.31,0.31l-3.29 0 4.9 7.67c0.1,0.16 0.05,0.36 -0.1,0.47 0,-0.05 -0.05,0 -0.16,0z"/>
   <path class="fil0" d="M9.43 14.37l0 3.44 2.92 -1.04 0 -2.4 -2.92 0zm-0.37 4.22c-0.05,0 -0.16,0 -0.21,-0.05 -0.1,-0.05 -0.16,-0.16 -0.16,-0.26l0 -4.22c0,-0.16 0.16,-0.31 0.31,-0.31l3.6 0c0.16,0 0.31,0.16 0.31,0.31l0 2.92c0,0.16 -0.1,0.26 -0.21,0.31l-3.6 1.3c0.05,0 0,0 -0.05,0z"/>
   <path class="fil0" d="M14.96 7.86l-8.5 0c-0.16,0 -0.31,-0.16 -0.31,-0.31 0,-0.16 0.16,-0.31 0.31,-0.31l8.5 0c0.16,0 0.31,0.16 0.31,0.31 0,0.16 -0.16,0.31 -0.31,0.31z"/>
   <path class="fil0" d="M12.66 14.37c-0.05,0 -0.1,0 -0.16,-0.05 -0.16,-0.1 -0.21,-0.31 -0.1,-0.47l4.59 -7.67 -12.57 0.05 4.9 7.67c0.1,0.16 0.05,0.37 -0.1,0.47 0,-0.05 -0.05,0 -0.16,0 -0.1,0 -0.21,-0.05 -0.26,-0.16l-5.22 -8.14c-0.05,-0.1 -0.05,-0.21 0,-0.31 0.05,-0.1 0.16,-0.16 0.26,-0.16l13.72 -0.05c0.1,0 0.21,0.05 0.26,0.16 0.05,0.1 0.05,0.21 0,0.31l-4.9 8.14c-0.05,0.1 -0.16,0.21 -0.26,0.21z"/>
   <path class="fil0" d="M9.43 14.37l0 3.44 2.92 -1.04 0 -2.4 -2.92 0zm-0.37 4.22c-0.05,0 -0.16,0 -0.21,-0.05 -0.1,-0.05 -0.16,-0.16 -0.16,-0.26l0 -4.22c0,-0.16 0.16,-0.31 0.31,-0.31l3.6 0c0.16,0 0.31,0.16 0.31,0.31l0 2.92c0,0.16 -0.1,0.26 -0.21,0.31l-3.6 1.3c0.05,0 0,0 -0.05,0z"/>
   <path class="fil0" d="M14.96 7.86l-8.5 0c-0.16,0 -0.31,-0.16 -0.31,-0.31 0,-0.16 0.16,-0.31 0.31,-0.31l8.5 0c0.16,0 0.31,0.16 0.31,0.31 0,0.16 -0.16,0.31 -0.31,0.31z"/>
   <g>
    <path class="fil0" d="M10.47 20.91c-2.8,0 -5.4,-1.09 -7.38,-3.07 -1.59,-1.59 -2.64,-3.65 -2.95,-5.91 0,-0.12 0.08,-0.27 0.19,-0.27 0.12,0 0.27,0.08 0.27,0.19 0.31,2.14 1.28,4.08 2.8,5.63 3.89,3.89 10.18,3.89 14.07,0 0.08,-0.08 0.23,-0.08 0.35,0 0.08,0.08 0.08,0.23 0,0.35 -1.94,1.98 -4.55,3.07 -7.34,3.07z"/>
    <path class="fil0" d="M20.57 9.25c-0.12,0 -0.23,-0.08 -0.23,-0.19 -0.31,-2.14 -1.28,-4.08 -2.8,-5.63 -3.89,-3.89 -10.18,-3.89 -14.07,0 -0.08,0.08 -0.23,0.08 -0.35,0 -0.08,-0.08 -0.08,-0.23 0,-0.35 1.98,-1.98 4.59,-3.07 7.38,-3.07 2.8,0 5.4,1.09 7.38,3.07 1.59,1.59 2.64,3.65 2.95,5.91 -0.04,0.16 -0.12,0.27 -0.27,0.27l0 0z"/>
    <path class="fil0" d="M17.66 19.97c-0.12,0 -0.23,-0.12 -0.23,-0.23l0 -1.83 -1.83 0c-0.12,0 -0.23,-0.12 -0.23,-0.23 0,-0.12 0.12,-0.23 0.23,-0.23l2.06 0c0.12,0 0.23,0.12 0.23,0.23l0 2.06c0.04,0.16 -0.08,0.23 -0.23,0.23z"/>
    <path class="fil0" d="M5.3 3.5l-2.06 0c-0.12,0 -0.23,-0.12 -0.23,-0.23l0 -2.06c0,-0.12 0.12,-0.23 0.23,-0.23 0.12,0 0.23,0.12 0.23,0.23l0 1.83 1.83 0c0.12,0 0.23,0.12 0.23,0.23 0,0.12 -0.08,0.23 -0.23,0.23z"/>
   </g>
   <path class="fil0" d="M2.79 6.57l-0.38 0.64c0,0 -0.05,-0.05 -0.11,-0.05 -0.05,-0.05 -0.11,-0.05 -0.16,-0.11 -0.05,-0.05 -0.16,-0.05 -0.27,-0.11 -0.11,-0.05 -0.16,-0.05 -0.27,-0.05l0 0.64 0.16 0.05c0.16,0.05 0.32,0.11 0.43,0.16 0.16,0.05 0.27,0.11 0.32,0.22 0.11,0.05 0.16,0.16 0.22,0.27 0.05,0.11 0.05,0.27 0.05,0.43 0,0.16 -0.05,0.32 -0.11,0.48 -0.05,0.11 -0.16,0.22 -0.27,0.32 -0.11,0.11 -0.22,0.16 -0.38,0.22 -0.16,0.05 -0.27,0.05 -0.43,0.05l0 0.59 -0.32 0 0 -0.59c-0.22,0 -0.43,-0.05 -0.7,-0.16 -0.21,-0.05 -0.43,-0.16 -0.59,-0.27l0.38 -0.7c0,0 0.05,0.05 0.11,0.11 0.05,0.05 0.11,0.05 0.22,0.11 0.11,0.05 0.22,0.05 0.32,0.11 0.11,0.05 0.21,0.05 0.32,0.11l0 -0.64 -0.22 -0.05c-0.16,-0.05 -0.32,-0.11 -0.43,-0.16 -0.11,-0.05 -0.22,-0.11 -0.27,-0.21 -0.05,-0.05 -0.16,-0.16 -0.16,-0.27 -0.05,-0.11 -0.05,-0.21 -0.05,-0.32 0,-0.16 0.05,-0.32 0.11,-0.43 0.05,-0.11 0.16,-0.27 0.22,-0.32 0.11,-0.11 0.21,-0.16 0.38,-0.22 0.16,-0.05 0.27,-0.11 0.43,-0.11l0 -0.48 0.32 0 0 0.48c0.21,0 0.43,0.05 0.59,0.16 0.21,-0.05 0.38,0 0.54,0.11zm-1.18 2.42c0.27,0 0.38,-0.11 0.38,-0.27 0,-0.11 -0.05,-0.16 -0.11,-0.22 -0.05,-0.05 -0.16,-0.11 -0.27,-0.11l0 0.59zm-0.22 -1.5l0 -0.59c-0.22,0 -0.32,0.11 -0.32,0.27 0,0.11 0.05,0.16 0.11,0.21 0,0.05 0.11,0.11 0.22,0.11z"/>
   <path class="fil0" d="M19.4 11.85l-0.38 0.64c0,0 -0.05,-0.05 -0.11,-0.05 -0.05,-0.05 -0.11,-0.05 -0.16,-0.11 -0.05,-0.05 -0.16,-0.05 -0.27,-0.11 -0.11,-0.05 -0.16,-0.05 -0.27,-0.05l0 0.64 0.16 0.05c0.16,0.05 0.32,0.11 0.43,0.16 0.16,0.05 0.27,0.11 0.32,0.22 0.11,0.05 0.16,0.16 0.22,0.27 0.05,0.11 0.05,0.27 0.05,0.43 0,0.16 -0.05,0.32 -0.11,0.48 -0.05,0.11 -0.16,0.22 -0.27,0.32 -0.11,0.11 -0.22,0.16 -0.38,0.22 -0.16,0.05 -0.27,0.05 -0.43,0.05l0 0.59 -0.32 0 0 -0.59c-0.22,0 -0.43,-0.05 -0.7,-0.16 -0.21,-0.05 -0.43,-0.16 -0.59,-0.27l0.38 -0.7c0,0 0.05,0.05 0.11,0.11 0.05,0.05 0.11,0.05 0.22,0.11 0.11,0.05 0.22,0.05 0.32,0.11 0.11,0.05 0.21,0.05 0.32,0.11l0 -0.64 -0.22 -0.05c-0.16,-0.05 -0.32,-0.11 -0.43,-0.16 -0.11,-0.05 -0.22,-0.11 -0.27,-0.21 -0.05,-0.05 -0.16,-0.16 -0.16,-0.27 -0.05,-0.11 -0.05,-0.21 -0.05,-0.32 0,-0.16 0.05,-0.32 0.11,-0.43 0.05,-0.11 0.16,-0.27 0.22,-0.32 0.11,-0.11 0.21,-0.16 0.38,-0.22 0.16,-0.05 0.27,-0.11 0.43,-0.11l0 -0.48 0.32 0 0 0.48c0.21,0 0.43,0.05 0.59,0.16 0.21,-0.05 0.38,0 0.54,0.11zm-1.18 2.42c0.27,0 0.38,-0.11 0.38,-0.27 0,-0.11 -0.05,-0.16 -0.11,-0.22 -0.05,-0.05 -0.16,-0.11 -0.27,-0.11l0 0.59zm-0.22 -1.5l0 -0.59c-0.22,0 -0.32,0.11 -0.32,0.27 0,0.11 0.05,0.16 0.11,0.21 0,0.05 0.11,0.11 0.22,0.11z"/>
  </g>
 </g>
</svg>
