<?xml version="1.0" encoding="UTF-8"?>
<!DOCTYPE svg PUBLIC "-//W3C//DTD SVG 1.1//EN" "http://www.w3.org/Graphics/SVG/1.1/DTD/svg11.dtd">
<!-- Creator: CorelDRAW -->
<svg xmlns="http://www.w3.org/2000/svg" xml:space="preserve" width="9.0861mm" height="11.9037mm" version="1.1" style="shape-rendering:geometricPrecision; text-rendering:geometricPrecision; image-rendering:optimizeQuality; fill-rule:evenodd; clip-rule:evenodd"
viewBox="0 0 17.99 23.57"
 xmlns:xlink="http://www.w3.org/1999/xlink"
 xmlns:xodm="http://www.corel.com/coreldraw/odm/2003">
 <defs>
  <style type="text/css">
   <![CDATA[
    .fil0 {fill:#1E81CE;fill-rule:nonzero}
    .fil1 {fill:#2155DC;fill-rule:nonzero}
   ]]>
  </style>
 </defs>
 <g id="Camada_x0020_1">
  <metadata id="CorelCorpID_0Corel-Layer"/>
  <path class="fil0" d="M8.37 2.84l-0.44 0.76c0,0 -0.06,-0.06 -0.13,-0.06 -0.06,-0.06 -0.13,-0.06 -0.19,-0.13 -0.06,-0.06 -0.19,-0.06 -0.32,-0.13 -0.13,-0.06 -0.19,-0.06 -0.31,-0.06l0 0.76 0.19 0.06c0.19,0.06 0.38,0.13 0.5,0.19 0.19,0.06 0.32,0.13 0.38,0.25 0.13,0.06 0.19,0.19 0.25,0.32 0.06,0.13 0.06,0.31 0.06,0.5 0,0.19 -0.06,0.38 -0.13,0.57 -0.06,0.13 -0.19,0.25 -0.31,0.38 -0.13,0.13 -0.25,0.19 -0.44,0.25 -0.19,0.06 -0.32,0.06 -0.5,0.06l0 0.69 -0.38 0 0 -0.69c-0.25,0 -0.5,-0.06 -0.82,-0.19 -0.25,-0.06 -0.5,-0.19 -0.69,-0.32l0.44 -0.82c0,0 0.06,0.06 0.13,0.13 0.06,0.06 0.13,0.06 0.25,0.13 0.13,0.06 0.25,0.06 0.38,0.13 0.13,0.06 0.25,0.06 0.38,0.13l0 -0.76 -0.25 -0.06c-0.19,-0.06 -0.38,-0.13 -0.5,-0.19 -0.13,-0.06 -0.25,-0.13 -0.32,-0.25 -0.06,-0.06 -0.19,-0.19 -0.19,-0.32 -0.06,-0.13 -0.06,-0.25 -0.06,-0.38 0,-0.19 0.06,-0.38 0.13,-0.5 0.06,-0.13 0.19,-0.32 0.25,-0.38 0.13,-0.13 0.25,-0.19 0.44,-0.25 0.19,-0.06 0.31,-0.13 0.5,-0.13l0 -0.57 0.38 0 0 0.57c0.25,0 0.5,0.06 0.69,0.19 0.25,-0.06 0.44,0 0.63,0.13zm-1.39 2.84c0.31,0 0.44,-0.13 0.44,-0.32 0,-0.13 -0.06,-0.19 -0.13,-0.25 -0.06,-0.06 -0.19,-0.13 -0.31,-0.13l0 0.69zm-0.25 -1.76l0 -0.69c-0.25,0 -0.38,0.13 -0.38,0.32 0,0.13 0.06,0.19 0.13,0.25 0,0.06 0.13,0.13 0.25,0.13z"/>
  <path class="fil0" d="M12.07 17.78c-0.06,0 -0.12,0 -0.18,-0.06 -0.18,-0.12 -0.24,-0.36 -0.12,-0.53l5.23 -8.73 -7.25 0c-0.18,0 -0.36,-0.18 -0.36,-0.36 0,-0.18 0.18,-0.36 0.36,-0.36l7.9 0c0.12,0 0.24,0.06 0.3,0.18 0.06,0.12 0.06,0.24 0,0.36l-5.58 9.26c-0.06,0.12 -0.18,0.24 -0.3,0.24z"/>
  <path class="fil0" d="M6.66 18.46c-0.13,0 -0.25,-0.06 -0.32,-0.19l-6.3 -9.83c-0.06,-0.13 -0.06,-0.25 0,-0.38 0.06,-0.13 0.19,-0.19 0.32,-0.19l4.66 0c0.19,0 0.38,0.19 0.38,0.38 0,0.19 -0.19,0.38 -0.38,0.38l-3.97 0 5.92 9.26c0.13,0.19 0.06,0.44 -0.13,0.57 0,-0.06 -0.06,0 -0.19,0z"/>
  <path class="fil0" d="M5.15 7.81l3.34 0c1.26,-0.63 2.02,-1.89 2.02,-3.28 0,-2.02 -1.64,-3.65 -3.66,-3.65 -2.02,0 -3.65,1.64 -3.65,3.65 -0.06,1.39 0.76,2.65 1.95,3.28zm3.4 0.76l-3.53 0c-0.06,0 -0.13,0 -0.19,-0.06 -1.58,-0.76 -2.58,-2.33 -2.58,-4.03 0,-2.46 2.02,-4.47 4.47,-4.47 2.46,0 4.47,2.02 4.47,4.47 0,1.7 -1.01,3.28 -2.58,4.03 0.06,0.06 0,0.06 -0.06,0.06z"/>
  <path class="fil0" d="M7.11 18.46l0 4.16 3.53 -1.26 0 -2.9 -3.53 0zm-0.44 5.1c-0.06,0 -0.19,0 -0.25,-0.06 -0.13,-0.06 -0.19,-0.19 -0.19,-0.32l0 -5.1c0,-0.19 0.19,-0.38 0.38,-0.38l4.35 0c0.19,0 0.38,0.19 0.38,0.38l0 3.53c0,0.19 -0.13,0.32 -0.25,0.38l-4.35 1.58c0.06,0 0,0 -0.06,0z"/>
  <path class="fil0" d="M13.79 10.59l-10.27 0c-0.19,0 -0.38,-0.19 -0.38,-0.38 0,-0.19 0.19,-0.38 0.38,-0.38l10.27 0c0.19,0 0.38,0.19 0.38,0.38 0,0.19 -0.19,0.38 -0.38,0.38z"/>
  <path class="fil1" d="M8.37 2.84l-0.44 0.76c0,0 -0.06,-0.06 -0.13,-0.06 -0.06,-0.06 -0.13,-0.06 -0.19,-0.13 -0.06,-0.06 -0.19,-0.06 -0.32,-0.13 -0.13,-0.06 -0.19,-0.06 -0.31,-0.06l0 0.76 0.19 0.06c0.19,0.06 0.38,0.13 0.5,0.19 0.19,0.06 0.32,0.13 0.38,0.25 0.13,0.06 0.19,0.19 0.25,0.32 0.06,0.13 0.06,0.31 0.06,0.5 0,0.19 -0.06,0.38 -0.13,0.57 -0.06,0.13 -0.19,0.25 -0.31,0.38 -0.13,0.13 -0.25,0.19 -0.44,0.25 -0.19,0.06 -0.32,0.06 -0.5,0.06l0 0.69 -0.38 0 0 -0.69c-0.25,0 -0.5,-0.06 -0.82,-0.19 -0.25,-0.06 -0.5,-0.19 -0.69,-0.32l0.44 -0.82c0,0 0.06,0.06 0.13,0.13 0.06,0.06 0.13,0.06 0.25,0.13 0.13,0.06 0.25,0.06 0.38,0.13 0.13,0.06 0.25,0.06 0.38,0.13l0 -0.76 -0.25 -0.06c-0.19,-0.06 -0.38,-0.13 -0.5,-0.19 -0.13,-0.06 -0.25,-0.13 -0.32,-0.25 -0.06,-0.06 -0.19,-0.19 -0.19,-0.32 -0.06,-0.13 -0.06,-0.25 -0.06,-0.38 0,-0.19 0.06,-0.38 0.13,-0.5 0.06,-0.13 0.19,-0.32 0.25,-0.38 0.13,-0.13 0.25,-0.19 0.44,-0.25 0.19,-0.06 0.31,-0.13 0.5,-0.13l0 -0.57 0.38 0 0 0.57c0.25,0 0.5,0.06 0.69,0.19 0.25,-0.06 0.44,0 0.63,0.13zm-1.39 2.84c0.31,0 0.44,-0.13 0.44,-0.32 0,-0.13 -0.06,-0.19 -0.13,-0.25 -0.06,-0.06 -0.19,-0.13 -0.31,-0.13l0 0.69zm-0.25 -1.76l0 -0.69c-0.25,0 -0.38,0.13 -0.38,0.32 0,0.13 0.06,0.19 0.13,0.25 0,0.06 0.13,0.13 0.25,0.13z"/>
  <path class="fil1" d="M12.07 17.78c-0.06,0 -0.12,0 -0.18,-0.06 -0.18,-0.12 -0.24,-0.36 -0.12,-0.53l5.23 -8.73 -7.25 0c-0.18,0 -0.36,-0.18 -0.36,-0.36 0,-0.18 0.18,-0.36 0.36,-0.36l7.9 0c0.12,0 0.24,0.06 0.3,0.18 0.06,0.12 0.06,0.24 0,0.36l-5.58 9.26c-0.06,0.12 -0.18,0.24 -0.3,0.24z"/>
  <path class="fil1" d="M6.66 18.46c-0.13,0 -0.25,-0.06 -0.32,-0.19l-6.3 -9.83c-0.06,-0.13 -0.06,-0.25 0,-0.38 0.06,-0.13 0.19,-0.19 0.32,-0.19l4.66 0c0.19,0 0.38,0.19 0.38,0.38 0,0.19 -0.19,0.38 -0.38,0.38l-3.97 0 5.92 9.26c0.13,0.19 0.06,0.44 -0.13,0.57 0,-0.06 -0.06,0 -0.19,0z"/>
  <path class="fil1" d="M5.15 7.81l3.34 0c1.26,-0.63 2.02,-1.89 2.02,-3.28 0,-2.02 -1.64,-3.65 -3.66,-3.65 -2.02,0 -3.65,1.64 -3.65,3.65 -0.06,1.39 0.76,2.65 1.95,3.28zm3.4 0.76l-3.53 0c-0.06,0 -0.13,0 -0.19,-0.06 -1.58,-0.76 -2.58,-2.33 -2.58,-4.03 0,-2.46 2.02,-4.47 4.47,-4.47 2.46,0 4.47,2.02 4.47,4.47 0,1.7 -1.01,3.28 -2.58,4.03 0.06,0.06 0,0.06 -0.06,0.06z"/>
  <path class="fil1" d="M7.11 18.46l0 4.16 3.53 -1.26 0 -2.9 -3.53 0zm-0.44 5.1c-0.06,0 -0.19,0 -0.25,-0.06 -0.13,-0.06 -0.19,-0.19 -0.19,-0.32l0 -5.1c0,-0.19 0.19,-0.38 0.38,-0.38l4.35 0c0.19,0 0.38,0.19 0.38,0.38l0 3.53c0,0.19 -0.13,0.32 -0.25,0.38l-4.35 1.58c0.06,0 0,0 -0.06,0z"/>
  <path class="fil1" d="M13.79 10.59l-10.27 0c-0.19,0 -0.38,-0.19 -0.38,-0.38 0,-0.19 0.19,-0.38 0.38,-0.38l10.27 0c0.19,0 0.38,0.19 0.38,0.38 0,0.19 -0.19,0.38 -0.38,0.38z"/>
 </g>
</svg>
