<?xml version="1.0" encoding="UTF-8"?>
<!DOCTYPE svg PUBLIC "-//W3C//DTD SVG 1.1//EN" "http://www.w3.org/Graphics/SVG/1.1/DTD/svg11.dtd">
<!-- Creator: CorelDRAW -->
<svg xmlns="http://www.w3.org/2000/svg" xml:space="preserve" width="28.4174mm" height="10.9043mm" version="1.1" style="shape-rendering:geometricPrecision; text-rendering:geometricPrecision; image-rendering:optimizeQuality; fill-rule:evenodd; clip-rule:evenodd"
viewBox="0 0 224.36 86.09"
 xmlns:xlink="http://www.w3.org/1999/xlink"
 xmlns:xodm="http://www.corel.com/coreldraw/odm/2003">
 <defs>
  <style type="text/css">
   <![CDATA[
    .fil0 {fill:#2C57A4;fill-rule:nonzero}
   ]]>
  </style>
 </defs>
 <g id="Camada_x0020_1">
  <metadata id="CorelCorpID_0Corel-Layer"/>
  <path class="fil0" d="M199.34 52.43c0,4.77 -3.88,8.65 -8.65,8.65l-44.29 0 -26.76 0 -0.17 0 14.78 -35.8 0.01 0c0.04,-0.1 0.11,-0.17 0.17,-0.25l21.25 0 28.79 0 6.21 0c4.77,0 8.65,3.88 8.65,8.65l0 18.76zm-161.33 8.65l-4.35 0c-4.77,0 -8.64,-3.88 -8.64,-8.65l0 -18.76c0,-4.77 3.88,-8.65 8.64,-8.65l42.94 0 28.12 0 1.19 0 -14.47 36.05 -22.77 0 -30.65 0zm152.68 -61.07l-6.21 0 -3.77 0 -50.98 0 -53.14 0 -42.94 0c-18.56,0 -33.66,15.1 -33.66,33.67l0 18.76c0,18.56 15.1,33.67 33.66,33.67l4.35 0 5.63 0 50.98 0 51.78 0 44.29 0c18.56,0 33.67,-15.1 33.67,-33.67l0 -18.76c0,-18.56 -15.1,-33.67 -33.67,-33.67z"/>
 </g>
</svg>
