<?xml version="1.0" encoding="UTF-8"?>
<!DOCTYPE svg PUBLIC "-//W3C//DTD SVG 1.1//EN" "http://www.w3.org/Graphics/SVG/1.1/DTD/svg11.dtd">
<!-- Creator: CorelDRAW -->
<svg xmlns="http://www.w3.org/2000/svg" xml:space="preserve" width="55.1445mm" height="4.7162mm" version="1.1" style="shape-rendering:geometricPrecision; text-rendering:geometricPrecision; image-rendering:optimizeQuality; fill-rule:evenodd; clip-rule:evenodd"
viewBox="0 0 988.1 84.51"
 xmlns:xlink="http://www.w3.org/1999/xlink"
 xmlns:xodm="http://www.corel.com/coreldraw/odm/2003">
 <defs>
  <style type="text/css">
   <![CDATA[
    .fil0 {fill:#2C57A4;fill-rule:nonzero}
   ]]>
  </style>
 </defs>
 <g id="Camada_x0020_1">
  <metadata id="CorelCorpID_0Corel-Layer"/>
  <path class="fil0" d="M24.48 33.21c0,-4.67 3.79,-8.46 8.46,-8.46l56.16 0c4.66,0 8.46,3.79 8.46,8.46l0 18.36c0,4.67 -3.79,8.46 -8.46,8.46l-56.16 0c-4.67,0 -8.46,-3.79 -8.46,-8.46l0 -18.36zm64.62 -32.94l-56.16 0c-18.16,0 -32.94,14.78 -32.94,32.94l0 18.36c0,18.16 14.78,32.94 32.94,32.94l56.16 0c18.17,0 32.94,-14.78 32.94,-32.94l0 -18.36c0,-18.16 -14.77,-32.94 -32.94,-32.94z"/>
  <path class="fil0" d="M402.42 0.32l-19.94 0c-1.28,0 -2.32,1.07 -2.32,2.38l0 79.42c0,1.32 1.04,2.38 2.32,2.38l19.94 0c1.28,0 2.32,-1.06 2.32,-2.38l0 -79.42c0,-1.32 -1.04,-2.38 -2.32,-2.38z"/>
  <path class="fil0" d="M607.51 59.92l-58.21 0 0 -57.22c0,-1.32 -1.04,-2.38 -2.31,-2.38l-19.95 0c-1.28,0 -2.31,1.07 -2.31,2.38l0 79.42c0,1.32 1.04,2.38 2.31,2.38l1.05 0 18.9 0 60.52 0c1.31,0 2.38,-1.04 2.38,-2.32l0 -19.94c0,-1.28 -1.07,-2.32 -2.38,-2.32z"/>
  <path class="fil0" d="M260.87 0.29l-19.86 0c-1.28,0 -2.31,1.04 -2.31,2.31l0 79.6c0,1.28 1.04,2.31 2.31,2.31l19.86 0c1.28,0 2.31,-1.04 2.31,-2.31l0 -79.6c0,-1.27 -1.03,-2.31 -2.31,-2.31z"/>
  <path class="fil0" d="M366.58 0.13l-60.71 -0.13c-19.47,0 -35.25,15.33 -35.25,34.23l0 15.9c0,18.91 15.78,34.24 35.25,34.24l60.71 0.13c1.28,0 2.32,-1.01 2.32,-2.25l0 -19.27c0,-1.25 -1.04,-2.26 -2.32,-2.26l-60.71 -0.13c-5.95,0 -10.78,-4.68 -10.78,-10.46l0 -14.97c0,-5.78 4.83,-10.47 10.78,-10.47l60.71 0.13c1.28,0 2.32,-1.01 2.32,-2.25l0 -20.19c0,-1.25 -1.04,-2.25 -2.32,-2.25z"/>
  <path class="fil0" d="M969.63 49.23c0,3.15 -1.02,6.23 -3.04,9.17 -0.28,0.51 -0.86,1.25 -2.56,2.9 -3.26,3.02 -7.02,4.53 -11.19,4.53l-55.7 0 0 -46.87 55.06 0c2.45,0 4.7,0.39 6.72,1.16 1.21,0.51 2.39,1.15 3.56,1.95 0.97,0.66 2.07,1.71 3.38,3.2 2.52,3.22 3.77,6.63 3.77,10.23l0 13.72zm16.54 -24.72c-0.32,-0.94 -0.63,-1.82 -0.91,-2.6 -0.94,-2.05 -2.16,-4.22 -3.56,-6.3 -0.7,-1.05 -2.06,-2.66 -4.03,-4.8 -1.62,-1.46 -3,-2.62 -3.97,-3.31 -6.39,-4.64 -13.49,-7 -21.12,-7l-68.12 0c-0.47,0 -1.33,0.16 -2.75,0.94 -1.98,1.32 -2.98,3.09 -2.98,5.48l0 71.39 0.32 1.26c0.13,0.53 0.22,0.69 0.22,0.7 0.17,0.44 0.44,1.07 1.61,2.33 1.13,1.07 2.46,1.64 3.96,1.64l67.61 0c6.06,0 11.79,-1.45 17.05,-4.29 1.45,-0.83 2.87,-1.74 4.18,-2.69 1.23,-0.87 2.72,-2.14 4.46,-3.8 1.7,-1.9 2.97,-3.46 3.65,-4.53 4.2,-6.03 6.3,-12.93 6.3,-20.58l0 -11.64c0,-3.83 -0.42,-7.25 -1.25,-10.16 -0.22,-0.61 -0.46,-1.34 -0.68,-2.04z"/>
  <path class="fil0" d="M765.63 80.76c0.75,1.45 1.93,2.51 3.57,3.12 0.99,0.33 1.48,0.37 1.64,0.37l80.65 0c0.08,-0.03 0.24,-0.05 0.42,-0.06l6.12 0 0 -16.57 -74.52 0 0 -16.56 1.28 -1.28 0.97 -0.06 53.79 0 0 -14.73 -56.11 0 0 -17.08 74.58 0 0 -17.43 -87.38 0.03c-0.29,0.03 -0.46,0.08 -0.46,0.08l-0.48 0.1c-0.01,0 -0.37,0.05 -1.39,0.51 -0.87,0.44 -1.67,1.18 -2.4,2.23 -0.59,1.04 -0.94,2.14 -0.94,3.13l0 5.82c0,11.78 0.03,18.83 0.06,20.96l0 44.51c0,1.04 0.2,2.04 0.58,2.93z"/>
  <path class="fil0" d="M740.04 84.24c0,-0.03 0.16,-0.05 0.32,-0.06l4.65 -0.01 0 -83.68 -17.74 0c-1.05,0 -1.66,0.14 -1.99,0.25 -1.08,0.39 -1.96,1.08 -2.67,2.1 -6.84,11.92 -8.08,14 -8.39,14.46 -0.19,0.42 -2.15,3.91 -15.23,26.44 -2.45,4.22 -9.87,17.09 -10.22,17.72l-0.62 1.14 -2.55 0 -3.6 -6.07 -22.21 -38.4c-6.2,-10.84 -7.82,-13.6 -8.08,-13.99 -1.27,-2.6 -2.81,-3.64 -5.14,-3.64l-17.93 0 0 83.68 18.34 0.06 0 -51.57 4.06 6.92c0.85,1.44 2.47,4.25 4.88,8.43 9.03,15.65 10.36,17.9 10.51,18.14 5.7,9.96 7.17,12.45 7.41,12.81 1.07,1.44 2.36,2.12 4.04,2.12l17.9 0c1.73,0 3.05,-0.73 4.16,-2.3l9.51 -16.47c7.6,-13.18 12.28,-21.26 13.17,-22.74l4.05 -6.69 0 51.37 13.38 0z"/>
  <path class="fil0" d="M230.74 2.67c0,-1.28 -1.04,-2.32 -2.32,-2.32l-93.57 0c-1.28,0 -2.32,1.04 -2.32,2.32l0 79.51c0,1.28 1.04,2.32 2.32,2.32l19.94 0c1.28,0 2.32,-1.04 2.32,-2.32l0 -6.92 -0.16 0 0 -10.27 63.3 0c1.28,0 2.32,-1.04 2.32,-2.32l0 -19.94c0,-1.28 -1.04,-2.31 -2.32,-2.31l-63.15 0 0.01 -14.46 71.23 0c1.28,0 2.31,-1.04 2.31,-2.32l0 -5.96c0.03,-0.12 0.08,-0.23 0.08,-0.37l0 -14.64z"/>
  <path class="fil0" d="M516.89 81.21l-31.94 -79.49c-0.36,-0.89 -1.21,-1.47 -2.14,-1.47l-34.61 0c-0.94,0 -1.78,0.58 -2.14,1.47l-32.06 79.49c-0.63,1.57 0.49,3.29 2.14,3.29l8.34 0 14.82 0 0.53 0 24.66 -59.44 0.02 0c0.15,-0.42 0.54,-0.71 1.01,-0.71 0.47,0 0.86,0.3 1.01,0.71l0.01 0 25.68 59.44c0.16,0 0.31,-0.04 0.46,-0.07 0.16,0.03 0.32,0.07 0.48,0.07l13.26 0 8.34 0c1.65,0 2.78,-1.73 2.14,-3.29z"/>
 </g>
</svg>
