<?xml version="1.0" encoding="UTF-8"?>
<!DOCTYPE svg PUBLIC "-//W3C//DTD SVG 1.1//EN" "http://www.w3.org/Graphics/SVG/1.1/DTD/svg11.dtd">
<!-- Creator: CorelDRAW -->
<svg xmlns="http://www.w3.org/2000/svg" xml:space="preserve" width="55.1445mm" height="4.7162mm" version="1.1" style="shape-rendering:geometricPrecision; text-rendering:geometricPrecision; image-rendering:optimizeQuality; fill-rule:evenodd; clip-rule:evenodd"
viewBox="0 0 824.77 70.54"
 xmlns:xlink="http://www.w3.org/1999/xlink"
 xmlns:xodm="http://www.corel.com/coreldraw/odm/2003">
 <defs>
  <style type="text/css">
   <![CDATA[
    .fil0 {fill:#FEFEFE;fill-rule:nonzero}
   ]]>
  </style>
 </defs>
 <g id="Camada_x0020_1">
  <metadata id="CorelCorpID_0Corel-Layer"/>
  <path class="fil0" d="M20.44 27.72c0,-3.89 3.16,-7.06 7.06,-7.06l46.88 0c3.89,0 7.06,3.16 7.06,7.06l0 15.32c0,3.89 -3.17,7.06 -7.06,7.06l-46.88 0c-3.89,0 -7.06,-3.17 -7.06,-7.06l0 -15.32zm53.93 -27.49l-46.88 0c-15.16,0 -27.49,12.33 -27.49,27.49l0 15.32c0,15.16 12.34,27.5 27.49,27.5l46.88 0c15.16,0 27.49,-12.34 27.49,-27.5l0 -15.32c0,-15.16 -12.33,-27.49 -27.49,-27.49z"/>
  <path class="fil0" d="M335.9 0.27l-16.65 0c-1.07,0 -1.94,0.89 -1.94,1.99l0 66.29c0,1.1 0.86,1.98 1.94,1.98l16.65 0c1.07,0 1.94,-0.89 1.94,-1.98l0 -66.29c0,-1.1 -0.86,-1.99 -1.94,-1.99z"/>
  <path class="fil0" d="M507.09 50.02l-48.58 0 0 -47.76c0,-1.1 -0.87,-1.99 -1.93,-1.99l-16.65 0c-1.07,0 -1.93,0.89 -1.93,1.99l0 66.29c0,1.1 0.86,1.99 1.93,1.99l0.88 0 15.78 0 50.52 0c1.1,0 1.99,-0.87 1.99,-1.94l0 -16.65c0,-1.07 -0.89,-1.94 -1.99,-1.94z"/>
  <path class="fil0" d="M217.75 0.24l-16.58 0c-1.07,0 -1.93,0.87 -1.93,1.93l0 66.44c0,1.06 0.86,1.93 1.93,1.93l16.58 0c1.07,0 1.93,-0.87 1.93,-1.93l0 -66.44c0,-1.06 -0.86,-1.93 -1.93,-1.93z"/>
  <path class="fil0" d="M305.99 0.11l-50.67 -0.11c-16.25,0 -29.43,12.79 -29.43,28.58l0 13.27c0,15.78 13.18,28.58 29.43,28.58l50.67 0.11c1.07,0 1.94,-0.84 1.94,-1.88l0 -16.08c0,-1.04 -0.87,-1.88 -1.94,-1.88l-50.67 -0.11c-4.96,0 -9,-3.91 -9,-8.73l0 -12.5c0,-4.83 4.03,-8.74 9,-8.74l50.67 0.11c1.07,0 1.94,-0.84 1.94,-1.88l0 -16.85c0,-1.04 -0.87,-1.88 -1.94,-1.88z"/>
  <path class="fil0" d="M809.36 41.09c0,2.63 -0.86,5.2 -2.54,7.66 -0.24,0.42 -0.72,1.05 -2.14,2.42 -2.72,2.52 -5.86,3.78 -9.34,3.78l-46.49 0 0 -39.12 45.96 0c2.04,0 3.93,0.33 5.61,0.97 1.01,0.42 1.99,0.96 2.97,1.63 0.81,0.55 1.73,1.43 2.82,2.67 2.11,2.69 3.15,5.54 3.15,8.54l0 11.45zm13.81 -20.64c-0.26,-0.78 -0.52,-1.52 -0.76,-2.17 -0.78,-1.71 -1.8,-3.53 -2.97,-5.26 -0.58,-0.88 -1.72,-2.22 -3.37,-4.01 -1.36,-1.22 -2.51,-2.19 -3.31,-2.77 -5.33,-3.88 -11.26,-5.84 -17.63,-5.84l-56.86 0c-0.39,0 -1.11,0.14 -2.29,0.79 -1.65,1.1 -2.49,2.58 -2.49,4.57l0 59.59 0.26 1.05c0.11,0.44 0.18,0.58 0.18,0.59 0.14,0.37 0.36,0.89 1.35,1.95 0.94,0.89 2.05,1.37 3.31,1.37l56.44 0c5.06,0 9.84,-1.21 14.24,-3.58 1.21,-0.69 2.4,-1.46 3.49,-2.25 1.03,-0.73 2.27,-1.79 3.72,-3.17 1.42,-1.58 2.48,-2.89 3.05,-3.78 3.5,-5.03 5.26,-10.8 5.26,-17.18l0 -9.71c0,-3.2 -0.35,-6.05 -1.04,-8.48 -0.19,-0.51 -0.39,-1.12 -0.57,-1.71z"/>
  <path class="fil0" d="M639.08 67.41c0.62,1.21 1.61,2.09 2.98,2.6 0.83,0.27 1.23,0.31 1.37,0.31l67.32 0c0.07,-0.02 0.2,-0.04 0.35,-0.05l5.11 0 0 -13.83 -62.2 0 0 -13.82 1.07 -1.06 0.81 -0.05 44.9 0 0 -12.3 -46.83 0 0 -14.26 62.25 0 0 -14.55 -72.94 0.03c-0.24,0.03 -0.38,0.07 -0.38,0.07l-0.4 0.09c-0.01,0 -0.31,0.04 -1.16,0.42 -0.72,0.36 -1.39,0.98 -2,1.86 -0.5,0.86 -0.79,1.78 -0.79,2.61l0 4.86c0,9.83 0.02,15.71 0.05,17.49l0 37.15c0,0.87 0.16,1.7 0.48,2.45z"/>
  <path class="fil0" d="M617.71 70.32c0,-0.02 0.13,-0.04 0.26,-0.05l3.88 -0 0 -69.85 -14.81 0c-0.87,0 -1.39,0.12 -1.66,0.21 -0.9,0.33 -1.63,0.9 -2.23,1.75 -5.71,9.95 -6.75,11.68 -7.01,12.07 -0.16,0.35 -1.79,3.27 -12.71,22.07 -2.04,3.53 -8.24,14.26 -8.53,14.79l-0.52 0.95 -2.13 0 -3.01 -5.07 -18.54 -32.05c-5.18,-9.05 -6.53,-11.35 -6.75,-11.68 -1.06,-2.17 -2.35,-3.04 -4.29,-3.04l-14.97 0 0 69.85 15.31 0.05 0 -43.05 3.39 5.78c0.71,1.2 2.06,3.54 4.07,7.03 7.54,13.06 8.65,14.94 8.77,15.14 4.75,8.31 5.98,10.39 6.18,10.69 0.9,1.2 1.97,1.77 3.37,1.77l14.94 0c1.44,0 2.55,-0.61 3.47,-1.92l7.94 -13.75c6.34,-11 10.25,-17.74 11,-18.98l3.38 -5.59 0 42.88 11.17 0z"/>
  <path class="fil0" d="M192.6 2.23c0,-1.07 -0.86,-1.94 -1.94,-1.94l-78.1 0c-1.06,0 -1.94,0.86 -1.94,1.94l0 66.37c0,1.07 0.87,1.93 1.94,1.93l16.65 0c1.07,0 1.94,-0.87 1.94,-1.93l0 -5.78 -0.13 0 0 -8.57 52.84 0c1.07,0 1.94,-0.87 1.94,-1.94l0 -16.65c0,-1.07 -0.87,-1.93 -1.94,-1.93l-52.72 0 0.01 -12.07 59.46 0c1.06,0 1.93,-0.86 1.93,-1.94l0 -4.97c0.02,-0.1 0.06,-0.19 0.06,-0.31l0 -12.22z"/>
  <path class="fil0" d="M431.45 67.78l-26.66 -66.35c-0.3,-0.74 -1.01,-1.23 -1.79,-1.23l-28.89 0c-0.78,0 -1.49,0.49 -1.78,1.23l-26.76 66.35c-0.53,1.31 0.41,2.75 1.79,2.75l6.96 0 12.37 0 0.44 0 20.58 -49.61 0.02 0c0.13,-0.35 0.45,-0.6 0.84,-0.6 0.39,0 0.72,0.25 0.85,0.6l0 0 21.44 49.61c0.14,0 0.26,-0.03 0.39,-0.06 0.13,0.03 0.26,0.06 0.4,0.06l11.06 0 6.96 0c1.38,0 2.32,-1.44 1.79,-2.75z"/>
 </g>
</svg>
