<?xml version="1.0" encoding="UTF-8"?>
<!DOCTYPE svg PUBLIC "-//W3C//DTD SVG 1.1//EN" "http://www.w3.org/Graphics/SVG/1.1/DTD/svg11.dtd">
<!-- Creator: CorelDRAW -->
<svg xmlns="http://www.w3.org/2000/svg" xml:space="preserve" width="28.4174mm" height="10.9043mm" version="1.1" style="shape-rendering:geometricPrecision; text-rendering:geometricPrecision; image-rendering:optimizeQuality; fill-rule:evenodd; clip-rule:evenodd"
viewBox="0 0 220.28 84.53"
 xmlns:xlink="http://www.w3.org/1999/xlink"
 xmlns:xodm="http://www.corel.com/coreldraw/odm/2003">
 <defs>
  <style type="text/css">
   <![CDATA[
    .fil0 {fill:#FEFEFE;fill-rule:nonzero}
   ]]>
  </style>
 </defs>
 <g id="Camada_x0020_1">
  <metadata id="CorelCorpID_0Corel-Layer"/>
  <path class="fil0" d="M195.72 51.47c0,4.68 -3.81,8.49 -8.49,8.49l-43.48 0 -26.27 0 -0.16 0 14.51 -35.15 0.01 0c0.04,-0.1 0.1,-0.17 0.17,-0.24l20.86 0 28.26 0 6.1 0c4.68,0 8.49,3.81 8.49,8.49l0 18.42zm-158.39 8.49l-4.27 0c-4.68,0 -8.48,-3.81 -8.48,-8.49l0 -18.42c0,-4.68 3.81,-8.49 8.48,-8.49l42.16 0 27.6 0 1.17 0 -14.21 35.4 -22.36 0 -30.09 0zm149.91 -59.96l-6.1 0 -3.7 0 -50.05 0 -52.17 0 -42.16 0c-18.22,0 -33.05,14.83 -33.05,33.05l0 18.42c0,18.23 14.83,33.05 33.05,33.05l4.27 0 5.53 0 50.05 0 50.84 0 43.48 0c18.23,0 33.05,-14.83 33.05,-33.05l0 -18.42c0,-18.23 -14.83,-33.05 -33.05,-33.05z"/>
 </g>
</svg>
