<?xml version="1.0" encoding="UTF-8"?>
<!DOCTYPE svg PUBLIC "-//W3C//DTD SVG 1.1//EN" "http://www.w3.org/Graphics/SVG/1.1/DTD/svg11.dtd">
<!-- Creator: CorelDRAW -->
<svg xmlns="http://www.w3.org/2000/svg" xml:space="preserve" width="66.9126mm" height="13.4828mm" version="1.1" style="shape-rendering:geometricPrecision; text-rendering:geometricPrecision; image-rendering:optimizeQuality; fill-rule:evenodd; clip-rule:evenodd"
viewBox="0 0 3428.42 690.82"
 xmlns:xlink="http://www.w3.org/1999/xlink"
 xmlns:xodm="http://www.corel.com/coreldraw/odm/2003">
 <defs>
  <style type="text/css">
   <![CDATA[
    .fil3 {fill:#373435;fill-rule:nonzero}
    .fil0 {fill:#0081FB;fill-rule:nonzero}
    .fil1 {fill:url(#id0);fill-rule:nonzero}
    .fil2 {fill:url(#id1);fill-rule:nonzero}
   ]]>
  </style>
  <linearGradient id="id0" gradientUnits="userSpaceOnUse" x1="190.47" y1="-3231.51" x2="914.25" y2="-3193.42">
   <stop offset="0" style="stop-opacity:1; stop-color:#0064E1"/>
   <stop offset="0.4" style="stop-opacity:1; stop-color:#0064E1"/>
   <stop offset="0.831373" style="stop-opacity:1; stop-color:#0073EE"/>
   <stop offset="1" style="stop-opacity:1; stop-color:#0082FB"/>
  </linearGradient>
  <linearGradient id="id1" gradientUnits="userSpaceOnUse" x1="114.28" y1="-3041.05" x2="114.28" y2="-3307.7">
   <stop offset="0" style="stop-opacity:1; stop-color:#0082FB"/>
   <stop offset="1" style="stop-opacity:1; stop-color:#0064E0"/>
  </linearGradient>
 </defs>
 <g id="Camada_x0020_1">
  <metadata id="CorelCorpID_0Corel-Layer"/>
  <path class="fil0" d="M112.34 455.56c0,39.69 8.73,70.21 20.12,88.65 14.93,24.15 37.22,34.4 59.92,34.4 29.29,0 56.07,-7.28 107.73,-78.7 41.37,-57.25 90.13,-137.59 122.92,-187.99l55.54 -85.37c38.59,-59.28 83.24,-125.18 134.47,-169.82 41.79,-36.46 86.89,-56.72 132.3,-56.72 76.19,0 148.79,44.15 204.33,126.97 60.8,90.7 90.32,204.94 90.32,322.84 0,70.09 -13.82,121.6 -37.33,162.28 -22.7,39.35 -66.97,78.66 -141.44,78.66l0 -112.18c63.77,0 79.65,-58.59 79.65,-125.63 0,-95.54 -22.28,-201.59 -71.35,-277.36 -34.82,-53.75 -79.96,-86.59 -129.64,-86.59 -53.71,0 -96.91,40.49 -145.48,112.72 -25.83,38.36 -52.34,85.14 -82.09,137.9l-32.76 58.05c-65.82,116.72 -82.51,143.27 -115.39,187.15 -57.67,76.8 -106.92,105.94 -171.76,105.94 -76.91,0 -125.56,-33.29 -155.69,-83.5 -24.66,-40.89 -36.73,-94.56 -36.73,-155.74l112.34 4.04z"/>
  <path class="fil1" d="M88.57 134.93c51.5,-79.39 125.82,-134.89 211.08,-134.89 49.36,0 98.43,14.63 149.66,56.45 56.07,45.75 115.81,121.06 190.36,245.25l26.74 44.57c64.53,107.5 101.21,162.77 122.7,188.87 27.62,33.48 46.97,43.46 72.11,43.46 63.77,0 79.65,-58.59 79.65,-125.63l99.08 -3.13c0,70.09 -13.82,121.6 -37.33,162.28 -22.7,39.35 -66.97,78.66 -141.44,78.66 -46.28,0 -87.31,-10.06 -132.64,-52.84 -34.86,-32.84 -75.62,-91.16 -106.97,-143.61l-93.25 -155.8c-46.78,-78.21 -89.71,-136.49 -114.59,-162.89 -26.74,-28.38 -61.06,-62.66 -115.91,-62.66 -44.38,0 -82.06,31.12 -113.6,78.78l-95.65 -56.87z"/>
  <path class="fil2" d="M297.82 112.95c-44.38,0 -82.06,31.12 -113.6,78.78 -44.61,67.31 -71.88,167.53 -71.88,263.83 0,39.69 8.73,70.21 20.12,88.65l-95.77 63.08c-24.61,-40.91 -36.69,-94.58 -36.69,-155.76 0,-111.19 30.51,-227.11 88.57,-316.63 51.5,-79.39 125.82,-134.89 211.08,-134.89l-1.83 112.95z"/>
  <path class="fil3" d="M1258.31 21.87l129.94 0 220.95 399.68 220.98 -399.68 127.12 0 0 656.77 -106.02 0 0 -503.37 -193.78 348.55 -99.46 0 -193.74 -348.55 0 503.33 -106.02 0 0 -656.73 0.04 0zm1031.12 244.87c-76.04,0 -121.79,57.22 -132.76,128.07l258.01 -0.01c-5.33,-72.98 -47.43,-128.06 -125.25,-128.06l0 0zm-237.86 168.41c0,-149.05 96.34,-257.55 239.69,-257.55 141.02,0 225.2,107.12 225.2,265.51l0 29.1 -359.79 0.01c12.76,77.07 63.92,128.98 146.35,128.98 65.79,0 106.89,-20.07 145.89,-56.8l56.3 68.95c-53.07,48.8 -120.53,76.91 -205.97,76.91 -155.19,0.08 -247.69,-113.1 -247.69,-255.12zm593.42 -159l-97.56 0 0 -86.78 97.56 0 0 -143.54 102.29 -0.01 0 143.54 148.22 0.01 0 86.78 -148.22 0 0 219.99c0,75.12 24,101.79 83.05,101.79 26.93,0 42.4,-2.33 65.21,-6.1l0 85.86c-28.42,8.04 -55.54,11.73 -84.91,11.73 -110.4,0 -165.59,-60.34 -165.59,-181.06l-0.04 -232.21zm681.15 84.41c-20.53,-51.84 -66.36,-90.05 -133.71,-90.05 -87.5,0 -143.53,62.09 -143.53,163.23 0,98.63 51.58,163.73 139.34,163.73 68.99,0 118.25,-40.15 137.9,-90.09l0 -146.82zm102.28 318.05l-100.37 0 0 -68.49c-28.07,40.34 -79.12,80.23 -161.82,80.23 -133.02,0 -221.89,-111.35 -221.89,-256.6 0,-146.62 91.04,-256.14 227.53,-256.14 67.5,0 120.41,26.97 156.19,74.63l0 -62.85 100.37 0 0 489.23z"/>
 </g>
</svg>
